<?xml version="1.0" encoding="UTF-8"?>
<!DOCTYPE svg PUBLIC "-//W3C//DTD SVG 1.0//EN" "http://www.w3.org/TR/2001/REC-SVG-20010904/DTD/svg10.dtd">
<!-- Creator: CorelDRAW 2019 (64-Bit) -->
<svg xmlns="http://www.w3.org/2000/svg" xml:space="preserve" width="1454px" height="1129px" version="1.0" style="shape-rendering:geometricPrecision; text-rendering:geometricPrecision; image-rendering:optimizeQuality; fill-rule:evenodd; clip-rule:evenodd"
viewBox="0 0 1454 1129.67"
 xmlns:xlink="http://www.w3.org/1999/xlink">
 <defs>
  <style type="text/css">
   <![CDATA[
    .fil1 {fill:#9C1A4A}
    .fil0 {fill:#D61359}
   ]]>
  </style>
 </defs>
 <g id="Layer_x0020_1">
  <metadata id="CorelCorpID_0Corel-Layer"/>
  <g id="_2145999229424">
   <path class="fil0" d="M578.02 725.94l0.03 353.17c36.35,24.34 63.5,42.34 116.41,49.22 25.05,3.26 312,3.2 327.23,-2.5 44.14,-16.54 41.73,-85.59 -6.09,-96.73 9.62,-6.69 37.81,-14.17 37.84,-49.97 0.02,-15.14 -3.72,-24.5 -10.83,-33.3 -6.05,-7.49 -16.93,-14.39 -27.01,-16.74 0.63,-0.44 1.72,-1.7 2.03,-1.1 0.42,0.82 2.25,-1.2 4.09,-2.16 33.56,-17.34 40.7,-50.4 23.51,-76.37 -8.16,-12.33 -10.67,-9.34 -23.38,-20.39 72.97,0 75.32,-90.76 11.38,-102.01 -40.44,-7.12 -156.63,-1.12 -205.15,-1.12 0,-38.7 5.45,-144.61 -3.29,-171.74 -18.71,-58.03 -74.65,-53.29 -121.73,-53.29 -12.78,54.86 -3.53,81.98 -35.3,139.72 -6.47,11.77 -8.82,16.7 -17.08,26.67 -7.25,8.75 -11.88,15.9 -20.22,23.54 -10.55,9.67 -38.53,31.39 -52.44,35.1z"/>
   <polygon class="fil1" points="578.05,1079.11 578.02,725.94 371.77,725.94 378.02,725.94 378.02,1079.11 "/>
   <path class="fil0" d="M678.06 113.36c-22.92,0 -45.84,0.01 -68.76,0 -28.68,-0.02 -56.26,-5.21 -56.26,18.75 0,27.55 70.88,51.75 90.64,81.26 -10.45,44.83 -56.27,121.89 -12.5,121.89 11.31,0 18.23,-6.47 25.5,-12l47 -34.26c9.82,-6.71 14.08,-10.79 24.38,-16.25 10.27,5.44 12.9,8.43 22.5,15.01 18.71,12.81 56.39,47.5 77.52,47.5 38.07,0 -7.57,-87.3 -15.63,-121.89 19.49,-29.1 90.64,-53.77 90.64,-81.26 0,-23.22 -25.09,-18.79 -53.13,-18.75 -23.97,0.03 -47.93,0 -71.89,0 -1.15,-13.82 -12.77,-44 -17.63,-60.51 -8.97,-30.51 -12.37,-52.01 -35.5,-52.01 -19.38,0 -30.02,57.6 -37.9,80.88 -3.06,9.04 -8.05,20.39 -8.98,31.64z"/>
   <path class="fil0" d="M99.86 597.79c-42.91,0 -157.71,-11.59 -66.25,50.63 13.76,9.36 24.58,18.44 38.12,27.51 -1.55,18.62 -25,77.69 -25,84.39 0,7.15 1.06,3.63 3.12,12.5 20.7,4.82 14.87,7.07 53.62,-21.4 13.39,-9.84 22,-17.54 37.02,-25.48 19.46,13.03 90.63,77.61 90.63,37.5 0,-17.44 -19.86,-65.46 -25,-87.51l58.65 -41.37c7.71,-5.68 13.24,-8.39 13.24,-21.14 0,-24.66 -74.08,-15.63 -100.02,-15.63 -0.89,-10.74 -9.73,-36.85 -13.64,-48.86 -6.44,-19.79 -8.33,-38.65 -26.99,-38.65 -16.77,0 -33.87,71.91 -37.5,87.51z"/>
   <path class="fil0" d="M1275.01 597.79c-42.91,0 -157.71,-11.59 -66.25,50.63 13.76,9.36 24.58,18.44 38.12,27.51 -1.55,18.62 -25,77.69 -25,84.39 0,7.15 1.06,3.63 3.12,12.5 20.7,4.82 14.87,7.07 53.62,-21.4 13.39,-9.84 22,-17.54 37.02,-25.48 19.46,13.03 90.64,77.61 90.64,37.5 0,-17.44 -19.87,-65.46 -25.01,-87.51l58.65 -41.37c7.72,-5.68 13.24,-8.39 13.24,-21.14 0,-24.66 -74.08,-15.63 -100.02,-15.63 -0.36,-4.4 -18.01,-87.51 -37.5,-87.51 -17.95,0 -19.52,19.43 -26.18,39.45 -5.78,17.35 -10.29,30.22 -14.45,48.06z"/>
   <path class="fil0" d="M303.01 272.75c-25.93,0 -100.01,-9.03 -100.01,15.63 0,17.19 14.25,21.05 31.73,33.89 14.08,10.34 25.77,18.99 40.15,28.62 -12.33,52.93 -60.61,144.45 29.47,76.35 12.27,-9.28 24.35,-18.44 36.16,-26.35 15.02,7.95 23.63,15.65 37.02,25.49 38.75,28.47 32.93,26.22 53.62,21.4 7.55,-28.49 -11.28,-48.26 -21.88,-93.77 11.3,-16.87 71.89,-49.01 71.89,-59.38 0,-31.23 -50.49,-21.88 -100.02,-21.88 -3.63,-15.6 -20.72,-87.51 -37.5,-87.51 -18.93,0 -20.32,18.88 -26.96,38.68 -4.27,12.74 -12.62,36.16 -13.67,48.83z"/>
   <path class="fil0" d="M1074.98 272.75c-19.82,0 -39.64,0.07 -59.46,-0.08 -64.66,-0.46 -42.17,26.64 -6.79,50.71 13.77,9.36 24.58,18.44 38.12,27.51 -1.55,18.62 -25,77.69 -25,84.38 0,7.16 1.06,3.64 3.13,12.51 20.69,4.82 14.86,7.07 53.61,-21.4 13.4,-9.84 22.01,-17.54 37.02,-25.49 19.47,13.04 90.64,77.62 90.64,37.51 0,-17.44 -19.87,-65.47 -25,-87.51l58.64 -41.37c7.72,-5.69 13.24,-8.39 13.24,-21.14 0,-24.66 -74.08,-15.63 -100.01,-15.63 -0.37,-4.4 -18.01,-87.51 -37.51,-87.51 -17.94,0 -19.52,19.43 -26.18,39.45 -5.77,17.35 -10.29,30.22 -14.45,48.06z"/>
  </g>
 </g>
</svg>
