<?xml version="1.0" encoding="UTF-8"?>
<!DOCTYPE svg PUBLIC "-//W3C//DTD SVG 1.0//EN" "http://www.w3.org/TR/2001/REC-SVG-20010904/DTD/svg10.dtd">
<!-- Creator: CorelDRAW 2019 (64-Bit) -->
<svg xmlns="http://www.w3.org/2000/svg" xml:space="preserve" width="1748px" height="1839px" version="1.0" style="shape-rendering:geometricPrecision; text-rendering:geometricPrecision; image-rendering:optimizeQuality; fill-rule:evenodd; clip-rule:evenodd"
viewBox="0 0 1748 1838.44"
 xmlns:xlink="http://www.w3.org/1999/xlink">
 <defs>
  <style type="text/css">
   <![CDATA[
    .fil0 {fill:#D61359}
   ]]>
  </style>
 </defs>
 <g id="Layer_x0020_1">
  <metadata id="CorelCorpID_0Corel-Layer"/>
  <g id="_2146248875584">
   <path class="fil0" d="M1747.16 1168.5l0 12.82 -0.08 1.13c-0.67,11.95 -2.91,24.31 -7.01,36.97 -3.84,11.84 -9.23,23.82 -16.38,35.84 -14.66,24.65 -65.04,81.96 -109.55,132.61 -25.15,28.6 -48.41,55.06 -61.12,70.8l-84.92 99.28 -1.62 1.71c-14.87,13.84 -193.35,101.37 -273.14,140.5 -16.65,8.16 -28.95,14.19 -34.29,16.86 -3.68,1.84 -9.51,4.88 -27.19,13.89 -65.65,33.46 -212.66,108.37 -228.71,108.37 -10.99,0 -42.01,-11.52 -73.63,-24.57 -29.78,-12.29 -60.75,-26.01 -73.66,-31.76l-128.52 -54.22 -0.32 -0.08c-3.57,-1.58 -6.13,-2.54 -8.62,-3.47 -17.37,-6.5 -32.76,-12.26 -39.83,-36.38 -1.37,-4.66 -2.02,-9.16 -2.02,-13.42 0,-9.98 3.28,-19.18 9.1,-26.69 5.66,-7.32 13.62,-12.82 23.14,-15.62 4.62,-1.35 9.46,-2.08 14.42,-2.08 16.27,0 130.21,48.78 198.64,78.07 22.16,9.49 39.44,16.89 46.22,19.61 9.95,4 17.52,7.54 23.28,10.24 5.14,2.41 7.38,3.71 7.64,3.71 0.14,0 4.19,-2.1 12.96,-6.64 2.8,-1.45 6.08,-3.15 14.14,-7.18l291.06 -145.52 0 -0.09 184.06 -91.94c10.02,-6.96 59.55,-66.81 103.42,-119.84 27.51,-33.25 52.84,-63.86 67.3,-79.48 3.34,-3.6 7.41,-7.95 11.44,-12.25 13.53,-14.46 26.38,-28.19 39.65,-44.61 3.22,-3.98 4.28,-5.25 5.33,-6.52 12.07,-14.55 23.83,-28.72 23.83,-53.31 0,-17.25 -7.06,-31.09 -17.7,-40.9 -12.83,-11.84 -30.72,-18.26 -48.12,-18.26 -11.79,0 -25.66,15.79 -38.95,30.92 -5.19,5.9 -10.31,11.73 -15.5,16.95l-28.21 31.54c-3.03,3.13 -4.45,5.08 -6.04,7.28 -1.56,2.15 -3.24,4.47 -6.42,8.22 -2.89,3.43 -5.16,5.73 -7.36,7.95 -1.84,1.86 -3.6,3.65 -6.32,7.14l-0.57 0.65 -140.64 165.97 -0.25 0.24c-41.22,47.28 -41.62,47.29 -72.23,47.97 -8.48,0.19 -20.55,0.46 -41.13,3.94 -2.94,17.82 -8.99,35.46 -17.32,50.94 -8.52,15.83 -19.53,29.7 -32.21,39.65 -11.89,9.33 -26.07,18.54 -42.53,25.45 -16.88,7.09 -36.07,11.77 -57.56,11.77 -35.28,0 -210.07,-50.83 -259.89,-65.32l-3.66 -1.07c-3.03,-0.88 -7.46,-1.96 -12.4,-3.16 -30.14,-7.35 -74.81,-18.24 -74.81,-51.26 0,-39.49 17.65,-51.35 44.11,-51.35 12.6,0 26.37,3.99 40.89,8.19 0.92,0.27 -1.07,-0.31 6.17,1.75l-0.02 0.04 183.25 50.26c6.03,1.75 11.69,3.23 17.35,4.71 6.38,1.67 12.76,3.34 19.39,5.29 38.95,11.44 65.74,5.73 81.35,-7.99 6.55,-5.75 11.25,-13.08 14.11,-21.17 2.97,-8.38 3.95,-17.53 2.97,-26.63 -2.24,-20.73 -14.71,-40.92 -37.12,-50.69 -159.3,-69.47 -262.6,-102.51 -424.5,-154.29l-3.8 -1.21c-85.46,-27.34 -172.66,-39.9 -258,-33.95 -79.1,5.52 -156.58,27 -229.56,67.47 -5.37,2.98 -9.76,6.02 -14.28,9.15 -2.51,1.74 -5.06,3.51 -6.54,4.49 -9.11,6.07 -16.52,10.79 -21.6,14.03 -3.36,2.14 -5.21,3.31 -8.02,5.42 -3.87,2.89 -7.12,5.66 -14.33,11.8 -10.63,9.05 -6.14,5.32 -15.11,12.92 -2.97,2.5 -5.45,4.49 -7.65,6.26 -3.48,2.8 -6.13,4.92 -11.03,9.68 -16.7,16.22 -35.68,19.38 -51.09,14.23 -7.35,-2.46 -13.77,-6.8 -18.74,-12.57l-0.08 0c-4.85,-5.64 -8.3,-12.63 -9.86,-20.52 -3.42,-17.4 2.66,-39.24 24.91,-58.51 76.35,-66.12 165.41,-113.15 260.78,-138.47 94.14,-24.99 194.37,-28.83 294.54,-9 65.85,13.03 144.41,35.73 223.86,62.16 99.87,33.21 200.01,71.89 277.87,104.6 9.26,3.89 14.63,6.03 19.92,8.15l-0.01 0.02c10.9,4.36 21.5,8.6 31.78,13.28l49.18 -58.78c3.35,-3.76 3.03,-3.32 9.4,-10.36l-0.05 -0.04c6.91,-7.65 13.61,-15.08 20.1,-22.74 2.38,-2.82 3.75,-4.65 4.99,-6.32 2.89,-3.89 5.37,-7.21 11.06,-12.92l72.52 -81.99 -0.03 -0.02c75.79,-90.74 161.88,-43.71 196.2,-22.85l2.09 -2.06c6.22,-6.12 12.63,-12.44 23.88,-19.23 29.66,-17.91 44.58,-17.81 73.79,-17.61 3.1,0.02 -6.5,-0.04 8.95,-0.04 29.62,0 67.99,17.6 96.84,47.24 23.83,24.47 41.79,57.4 43.89,95.77l0.08 1.05zm-529.7 183.3c11.27,-1.53 22.91,-3.11 34.65,-3.77 12.07,-16.55 26.89,-33.53 41.22,-49.94 10.88,-12.45 21.47,-24.57 29.97,-35.57 4.28,-5.54 6.35,-7.73 10.26,-11.86l-0.04 -0.04c0.86,-0.91 1.8,-1.91 3.49,-3.73 2.85,-3.06 3.93,-4.56 5.1,-6.19l-0.05 -0.04c1.38,-1.92 2.87,-3.99 6.14,-7.86l0.24 -0.33 51.49 -58.49 0.4 -0.41 1.37 -1.46c7.75,-8.33 23.8,-25.57 33.23,-37.31 -11.79,-6.24 -27.01,-12.73 -45.71,-3.71 -3,1.45 -5.07,3.63 -8.36,7.08l-2.02 2.12 -145.57 166 0.02 0.02c-2.19,2.58 -3.18,3.97 -4.11,5.26 -2.11,2.94 -4.04,5.63 -8.38,10.29 -4.16,4.48 -8.86,9.62 -13.11,14.59 -1.4,1.64 -2.77,3.27 -4.07,4.87l1.39 2.34c1.73,2.89 3.5,5.85 5.17,9.11l7.28 -0.97z"/>
   <path class="fil0" d="M589.12 853.65c-4.42,-4.12 -13.4,-12.49 -0.03,0.03l0.03 -0.03z"/>
   <path class="fil0" d="M772.36 1023.52c-8.58,7.52 -20.21,12.12 -32.51,12.12 -9.05,0 -23.87,-4.25 -39.45,-9.91 -21.7,-7.89 -46.33,-18.87 -55.45,-23.46 -41.24,-20.79 -75.85,-42.46 -107.44,-68.56 -31.65,-26.15 -60.11,-56.6 -88.97,-94.9 -37.94,-50.34 -67.66,-113.01 -85.07,-179.8 -16.62,-63.73 -22.07,-131.34 -12.8,-195.69 13.4,-93.07 47.56,-177.73 99.74,-248.98 51.69,-70.59 120.95,-127.91 205.09,-167.13 30.18,-14.06 61.27,-24.87 93.01,-32.57 32.26,-7.83 65.01,-12.34 98.03,-13.72l0.82 -0.08 42.25 0 0.81 0.08c20.24,0.83 40.25,2.74 59.98,5.69 20.31,3.04 40.5,7.13 60.5,12.24 42.8,10.94 86.27,29.3 126.91,52.76 41.18,23.76 79.36,52.74 110.9,84.49l28.68 32.12 0.02 -0.02c7.98,8.48 20.16,25.02 31.95,42.42 13.17,19.41 26.03,40.1 32,51.66 38.78,75.21 59.01,159.94 59.61,244.6 0.59,83.3 -17.83,166.55 -56.29,240.64 -19.27,37.15 -34.65,58.64 -47.94,74.94 6.98,-0.9 14.15,-1.84 24.69,-3.42l0 -0.01 4.26 -0.65c9.23,-1.42 18.59,-2.86 27.72,-2.86 26.76,0 47.15,9.23 47.15,45.99 0,42.74 -28.84,45.96 -59.51,49.38 -3.38,0.38 -6.8,0.76 -8.72,1.02 -10.52,1.43 -24.47,3.46 -38.29,5.47 -9.76,1.42 -19.44,2.83 -31.63,4.52 -8.19,1.13 -18.31,2.92 -28.36,4.7 -20.09,3.54 -39.96,7.06 -57.02,7.06 -32.39,0 -54.75,-10.6 -54.75,-45.49l0 -186.63c0,-19.22 8.65,-32.52 20.71,-40.16 6.22,-3.94 13.21,-6.16 20.27,-6.76 6.75,-0.57 13.75,0.38 20.3,2.77 14.06,5.13 25.93,16.73 29.35,34.11l0.32 3.9 0.37 80.8c24.3,-28.99 41.2,-53.84 61.37,-101.7 1.65,-3.91 3.19,-8.32 4.69,-12.62 1.25,-3.57 2.47,-7.05 4.16,-11.29 5.33,-13.35 11.93,-42.44 17.12,-72.18 5.02,-28.67 8.56,-56.99 8.24,-71.29l-10.95 -91.83c-8.29,-39.42 -23.83,-79.12 -44.04,-115.89 -21.37,-38.86 -47.84,-74.18 -76.42,-102.2 -3.52,-3.45 -6.31,-5.56 -9.23,-7.77 -2.96,-2.24 -6.03,-4.56 -10.05,-8.14 -14.78,-13.17 -30.32,-25.8 -46.54,-36.81 -16.21,-11.02 -33.51,-20.78 -51.97,-28.38 -5.74,-2.36 -9.83,-4.37 -13.72,-6.29 -3.65,-1.8 -7.1,-3.5 -10.91,-4.93 -27.61,-10.4 -47.49,-16.93 -67.73,-21.17 -20.33,-4.27 -41.68,-6.4 -72.19,-7.99 -6.11,-0.32 -10.42,-1.03 -14.42,-1.69 -4.17,-0.7 -7.81,-1.3 -13.46,-0.51 -18.86,2.62 -32.24,3.47 -44.2,4.23 -25.67,1.64 -44.26,2.82 -100.26,23 -25.32,9.13 -47.07,19.79 -67.66,32.17 -20.44,12.3 -40.2,26.7 -61.42,43.18 -15.53,12.06 -38.13,36.4 -58.74,62.01 -20.06,24.93 -37.86,50.55 -44.95,66.59 -5.04,11.4 -2.83,6.29 -3.53,7.91 -3.09,7.12 -5.36,12.34 -8.29,18.24 -30.54,61.31 -42.04,132.71 -36.99,203.39 5.25,73.5 28.35,145.97 66.52,205.42 29.41,45.81 45.42,60.73 81.09,93.99 3.24,3.02 2.18,2.02 0,0l-0.03 0.03 9.12 8.52c41.05,38.4 86.33,55.88 120.2,68.96 40.87,15.79 68.93,26.62 68.93,60.33 0,12.75 -5.81,24.01 -14.98,32.03z"/>
   <path class="fil0" d="M789.73 334.67c11.22,-5.83 23.42,-10.02 36.36,-12.19 1,-11.06 3.82,-22.9 8.9,-32.34 7.23,-13.44 18.48,-22.68 34.84,-22.68 44.26,0 50.66,23.24 51.06,52.89 6.5,-0.21 12.6,-0.41 16.02,-0.41 36.28,0 63.72,6.67 63.72,48.33 0,41.49 -39.45,48.56 -82.75,48.56 -6.78,0 -16.93,-0.33 -26.72,-0.65 -7.72,-0.25 -15.21,-0.49 -21.34,-0.51 -13.12,-0.03 -29.68,0.12 -41.3,5.24 -8.27,3.65 -14.52,11.41 -14.52,27.35 0,14.21 5.83,21.84 13.95,25.81 11.44,5.58 27.56,6.6 42,6.64 33.85,0.09 63,11.53 85.14,29.83 14.41,11.91 25.87,26.78 33.73,43.35 7.82,16.5 12.02,34.71 11.98,53.42 -0.08,27.93 -9.55,56.65 -30.48,81.98 -18.5,22.38 -27.89,26.37 -45.97,34.05l-3.6 1.53c0.52,31.63 -0.42,54.47 -38.81,61.95 -27.6,5.37 -42.33,-7.4 -50.17,-27.23 -2.93,-7.43 -4.48,-15.67 -5.27,-23.89l-49.99 0c-13.81,0 -25.96,-3.72 -35.31,-9.85 -6.32,-4.15 -11.43,-9.44 -15.05,-15.55 -3.89,-6.57 -5.98,-13.89 -5.98,-21.6 0,-8.55 2.55,-17.34 8.08,-25.77 17.22,-26.23 56.43,-24.16 96.54,-22.04 23.72,1.26 47.84,2.54 60.92,-2.32 9.07,-3.38 15.1,-10.35 18.12,-18.45 1.6,-4.29 2.41,-8.88 2.42,-13.42 0.01,-4.59 -0.75,-9.09 -2.27,-13.18 -2.62,-7.07 -7.63,-12.96 -14.9,-15.67 -4.67,-1.74 -14.13,-2.21 -25.05,-2.75 -40.16,-1.99 -95.27,-4.72 -129.46,-70.44 -9.64,-18.53 -14.03,-37.88 -14.03,-56.78l0.08 0c0,-23.79 6.89,-46.72 18.95,-66.31 12.08,-19.62 29.37,-36.08 50.16,-46.9z"/>
   <path class="fil0" d="M77.14 1627.56c-45.32,0 -77.98,-7.72 -77.98,-49.06 0,-9.76 4.93,-21.04 11.95,-29.23 7.38,-8.62 17.79,-14.93 28.87,-14.93l356.6 0c12.62,0 42.06,13.11 63.27,22.56 7.1,3.17 13.2,5.88 16.25,7.09 8.54,3.4 14.99,5.99 18.79,7.56 6.18,2.57 11.85,4.99 17.24,7.38 11.8,5.23 20.14,11.76 25.75,18.87 7.35,9.31 9.99,19.27 9.4,28.86 -0.56,9.15 -4.1,17.55 -9.23,24.45 -5.35,7.2 -12.75,13.01 -20.35,16.31 -21.45,9.31 -49.11,-3.72 -79.83,-18.21 -23.63,-11.13 -49.56,-23.36 -67.87,-23.46l-226.7 0.15 0 0.09c-13.68,0 -24.57,0.38 -35.01,0.75 -11.84,0.42 -23.22,0.82 -31.15,0.82z"/>
  </g>
 </g>
</svg>
