<?xml version="1.0" encoding="UTF-8"?>
<!DOCTYPE svg PUBLIC "-//W3C//DTD SVG 1.0//EN" "http://www.w3.org/TR/2001/REC-SVG-20010904/DTD/svg10.dtd">
<!-- Creator: CorelDRAW 2019 (64-Bit) -->
<svg xmlns="http://www.w3.org/2000/svg" xml:space="preserve" width="2102px" height="2070px" version="1.0" style="shape-rendering:geometricPrecision; text-rendering:geometricPrecision; image-rendering:optimizeQuality; fill-rule:evenodd; clip-rule:evenodd"
viewBox="0 0 2102 2069.44"
 xmlns:xlink="http://www.w3.org/1999/xlink">
 <defs>
  <style type="text/css">
   <![CDATA[
    .fil0 {fill:#D61359}
    .fil1 {fill:#D61359;fill-rule:nonzero}
   ]]>
  </style>
 </defs>
 <g id="Layer_x0020_1">
  <metadata id="CorelCorpID_0Corel-Layer"/>
  <g>
   <path class="fil0" d="M1982.13 268.8l-346.36 -159.53 -346.36 159.53 0 342.79c0,0 -10.65,166.06 100.06,240.58 86.35,58.12 194.7,134.36 246.3,178.24 51.59,-43.88 159.95,-120.12 246.29,-178.24 110.72,-74.52 100.07,-240.58 100.07,-240.58l0 -342.79zm-332.12 -190.41l346.36 159.54 19.83 30.87 0 342.79c0.81,20.09 4.23,188.38 -115.24,268.79 -46.18,31.08 -99.59,68.04 -147.87,102.98 -38.67,27.99 -72.9,53.89 -95.36,73l-43.92 0c-22.46,-19.11 -56.68,-45.01 -95.37,-73 -48.28,-34.93 -101.7,-71.9 -147.86,-102.98 -119.48,-80.41 -116.05,-248.7 -115.2,-268.79l-0.04 -342.79 19.83 -30.87 346.36 -159.54 28.48 0z"/>
   <path id="1" class="fil0" d="M1982.13 268.8l-346.36 -159.53 -346.36 159.53 0 342.79c0,0 -10.65,166.06 100.06,240.58 86.35,58.12 194.7,134.36 246.3,178.24 51.59,-43.88 159.95,-120.12 246.29,-178.24 110.72,-74.52 100.07,-240.58 100.07,-240.58l0 -342.79zm-332.12 -190.41l346.36 159.54 19.83 30.87 0 342.79c0.81,20.09 4.23,188.38 -115.24,268.79 -46.18,31.08 -99.59,68.04 -147.87,102.98 -38.67,27.99 -72.9,53.89 -95.36,73l-43.92 0c-22.46,-19.11 -56.68,-45.01 -95.37,-73 -48.28,-34.93 -101.7,-71.9 -147.86,-102.98 -119.48,-80.41 -116.05,-248.7 -115.2,-268.79l-0.04 -342.79 19.83 -30.87 346.36 -159.54 28.48 0zm-11.63 25.22l345.99 159.36c2.34,0.9 4.01,3.17 4.01,5.83l0 342.79 -0.01 0c0.45,8.08 8.18,171.03 -102.84,245.76 -47.12,31.71 -100.99,68.97 -148.74,103.52 -39.06,28.27 -73.77,54.56 -96.91,74.23 -2.28,2 -5.75,2.09 -8.14,0.07 -23.14,-19.68 -57.89,-46 -97,-74.3 -47.75,-34.55 -101.61,-71.81 -148.73,-103.52 -110.67,-74.5 -103.35,-236.64 -102.85,-245.69 0,-0.02 0,-0.05 0,-0.07l0 -342.79 0.01 0c0,-2.35 1.34,-4.61 3.62,-5.66l346.37 -159.53 0 0c1.6,-0.74 3.5,-0.8 5.22,0zm353.73 139.22l-343.44 -158.19 -25.8 0 -343.44 158.19 -17.87 27.82 0.04 340.69c0.01,0.16 0.01,0.33 0,0.49 -0.41,9.87 -1.46,56.14 12.31,110 13.67,53.45 41.98,114.24 100.13,153.38 24.73,16.64 51,34.6 76.88,52.62 23.91,16.65 48.08,33.76 71.18,50.47 20.06,14.52 39.03,28.55 55.88,41.45 14.64,11.21 27.57,21.48 38.1,30.36l39.38 0c10.51,-8.87 23.42,-19.12 38.04,-30.3 16.87,-12.92 35.85,-26.97 55.93,-41.5 23.07,-16.7 47.2,-33.78 71.08,-50.41 25.91,-18.04 52.22,-36.03 76.98,-52.69 58.16,-39.14 86.47,-99.93 100.14,-153.38 13.56,-53.01 12.77,-98.66 12.36,-109.5 -0.03,-0.24 -0.04,-0.49 -0.04,-0.74l0 -340.98 -17.84 -27.78z"/>
  </g>
  <g>
   <path class="fil0" d="M1920.26 308.42l-284.49 -131.04 -284.5 131.04 0 305.09 -0.12 1.92c-3.89,62.45 18.5,148.82 72.87,185.43 27.98,18.83 55.82,37.89 83.49,57.19 42.3,29.5 86.66,60.35 128.26,92.71 41.6,-32.36 85.97,-63.21 128.27,-92.72 27.66,-19.29 55.5,-38.35 83.48,-57.18 54.37,-36.61 76.75,-122.98 72.87,-185.43l-0.13 -1.92 0 -305.09zm-270.25 -161.92l284.49 131.04 19.83 30.88 0 305.09c2.36,38.22 -3.95,84.31 -19.96,125.06 -14.35,36.52 -36.7,69.46 -67.96,90.5 -11.13,7.49 -24.9,16.85 -41.59,28.29 -18.19,12.45 -32.04,22 -41.36,28.5l-3.38 2.36c-40.02,27.91 -81.83,57.07 -123.42,89.42l-41.78 0c-41.72,-32.45 -83.68,-61.71 -123.83,-89.71l-2.97 -2.07c-9.34,-6.52 -23.38,-16.19 -41.36,-28.5 -16.58,-11.36 -30.45,-20.79 -41.6,-28.29 -31.25,-21.04 -53.6,-53.98 -67.95,-90.5 -16.01,-40.75 -22.32,-86.84 -19.96,-125.06l0 -305.09 19.83 -30.88 284.49 -131.04 28.48 0z"/>
   <path id="1" class="fil0" d="M1635.77 950.76c41.6,-32.36 85.97,-63.21 128.27,-92.72 27.66,-19.29 55.5,-38.35 83.48,-57.18 54.37,-36.61 76.75,-122.98 72.87,-185.43l-0.13 -1.92 0 -305.09 -284.49 -131.04 -284.5 131.04 0 305.09 -0.12 1.92c-3.89,62.45 18.5,148.82 72.87,185.43 27.98,18.83 55.82,37.89 83.49,57.19 42.3,29.5 86.66,60.35 128.26,92.71zm14.24 -804.26l284.49 131.04 19.83 30.88 0 305.09c2.36,38.22 -3.95,84.31 -19.96,125.06 -14.35,36.52 -36.7,69.46 -67.96,90.5 -11.13,7.49 -24.9,16.85 -41.59,28.29 -18.19,12.45 -32.04,22 -41.36,28.5l-3.38 2.36c-40.02,27.91 -81.83,57.07 -123.42,89.42l-41.78 0c-41.72,-32.45 -83.68,-61.71 -123.83,-89.71l-2.97 -2.07c-9.34,-6.52 -23.38,-16.19 -41.36,-28.5 -16.58,-11.36 -30.45,-20.79 -41.6,-28.29 -31.25,-21.04 -53.6,-53.98 -67.95,-90.5 -16.01,-40.75 -22.32,-86.84 -19.96,-125.06l0 -305.09 19.83 -30.88 284.49 -131.04 28.48 0zm-11.63 25.22l284.12 130.86c2.35,0.9 4.01,3.18 4.01,5.84l0 305.08 0.1 1.54 0 0c0,0.01 0,0.02 0,0.02 2.16,34.62 -3.57,76.42 -18.11,113.4 -12.45,31.7 -31.42,60 -57.52,77.57 -13.41,9.03 -27.34,18.49 -41.81,28.4 -14.74,10.1 -28.61,19.68 -41.57,28.71l-3.31 2.31c-41.03,28.62 -83.9,58.52 -124.6,90.17 -2.2,1.78 -5.42,1.89 -7.75,0.07 -40.86,-31.78 -83.9,-61.8 -125.1,-90.52l-2.9 -2.02c-12.95,-9.04 -26.83,-18.62 -41.58,-28.72 -14.46,-9.91 -28.4,-19.37 -41.81,-28.4 -26.09,-17.57 -45.06,-45.87 -57.52,-77.56 -14.51,-36.94 -20.24,-78.67 -18.11,-113.27 0,-0.05 0,-0.11 0,-0.16l0.1 -1.54 0 -305.08 0.02 0c0,-2.36 1.34,-4.61 3.62,-5.66l284.5 -131.04 0 0c1.6,-0.74 3.5,-0.8 5.22,0zm291.86 110.73l-281.57 -129.7 -25.8 0 -281.57 129.7 -17.87 27.82 0.01 302.87c0.01,0.24 0.01,0.49 0,0.73 -1.2,19.26 -0.14,40.55 3.3,62.11 3.25,20.33 8.62,40.94 16.24,60.32 7.29,18.54 16.66,36.1 28.23,51.51 10.58,14.09 23.01,26.41 37.38,36.08 4.95,3.34 11.23,7.59 18.78,12.73 9.33,6.34 16.9,11.51 22.86,15.59 7.58,5.19 15.56,10.67 23.95,16.45 6.37,4.39 12.18,8.42 17.46,12.1l2.55 1.78c0.15,0.08 0.29,0.17 0.42,0.27l0.09 0.06 -0.01 0.01c0,0.01 0,0.01 0.01,0.01 39.8,27.76 81.38,56.75 122.31,88.51l37.52 0c40.71,-31.59 82.05,-60.43 121.65,-88.05 0.08,-0.06 0.16,-0.12 0.25,-0.18l0.11 -0.08 0 0.01 2.95 -2.06c0.13,-0.11 0.27,-0.21 0.41,-0.31 3.23,-2.25 9.15,-6.34 17.68,-12.22 8.13,-5.6 16.15,-11.12 23.73,-16.3 6.11,-4.19 13.68,-9.35 22.9,-15.63 7.53,-5.12 13.79,-9.36 18.74,-12.69 14.37,-9.67 26.8,-21.99 37.38,-36.08 11.57,-15.41 20.94,-32.97 28.23,-51.51 7.62,-19.38 12.99,-39.98 16.24,-60.32 3.41,-21.4 4.48,-42.54 3.33,-61.67 -0.03,-0.26 -0.05,-0.53 -0.05,-0.8l0 -303.28 -17.84 -27.78z"/>
  </g>
  <g>
   <path class="fil1" d="M1516.94 592.82c-8.19,-6.08 -9.91,-17.65 -3.83,-25.85 6.07,-8.19 17.65,-9.91 25.84,-3.83l86.26 64.29 162.89 -223.98c6,-8.28 17.57,-10.12 25.85,-4.13 8.27,5.99 10.12,17.57 4.13,25.85l-174.06 239.27c-6.08,8.2 -17.65,9.92 -25.85,3.84l-101.23 -75.46z"/>
   <path id="1" class="fil0" d="M1516.94 592.82c-8.19,-6.08 -9.91,-17.65 -3.83,-25.85 6.07,-8.19 17.65,-9.91 25.84,-3.83l86.26 64.29 162.89 -223.98c6,-8.28 17.57,-10.12 25.85,-4.13 8.27,5.99 10.12,17.57 4.13,25.85l-174.06 239.27c-6.08,8.2 -17.65,9.92 -25.85,3.84l-101.23 -75.46zm-1.09 -13.03c0.46,3.1 2.1,6.02 4.8,8.03l101.23 75.45c2.71,2.01 5.99,2.73 9.11,2.27 3.01,-0.45 5.86,-2.01 7.85,-4.58 0.04,-0.06 0.09,-0.12 0.13,-0.18l174.05 -239.27c2,-2.75 2.69,-6.05 2.19,-9.14 -0.49,-3.09 -2.17,-6.01 -4.92,-8 -2.75,-1.99 -6.05,-2.68 -9.14,-2.19 -3.09,0.5 -6,2.18 -8,4.93l-162.89 223.98 -0.01 0c-0.01,0.01 -0.02,0.03 -0.04,0.05 -2.05,2.76 -5.95,3.34 -8.71,1.3l-86.26 -64.3c-2.7,-2 -5.99,-2.72 -9.1,-2.26 -3.1,0.46 -6.02,2.1 -8.03,4.8 -2.01,2.71 -2.72,5.99 -2.26,9.11z"/>
  </g>
  <g>
   <path class="fil1" d="M246.17 914.32c-12.42,12.85 -32.92,13.19 -45.77,0.77 -12.85,-12.43 -13.19,-32.93 -0.76,-45.78l679.41 -675.35c12.43,-12.85 32.93,-13.19 45.78,-0.76 12.85,12.42 13.18,32.92 0.76,45.77l-679.42 675.35z"/>
   <path class="fil1" d="M232.6 451.88c-12.42,12.85 -32.92,13.19 -45.77,0.77 -12.85,-12.43 -13.19,-32.93 -0.76,-45.78l241.39 -249.52c12.42,-12.85 32.92,-13.19 45.77,-0.77 12.85,12.43 13.19,32.93 0.76,45.78l-241.39 249.52z"/>
   <path class="fil1" d="M252.82 664.66c-12.42,12.85 -32.92,13.19 -45.77,0.76 -12.85,-12.42 -13.19,-32.92 -0.77,-45.77l439.39 -440.75c12.42,-12.85 32.93,-13.18 45.77,-0.76 12.85,12.42 13.19,32.92 0.77,45.77l-439.39 440.75z"/>
  </g>
  <path class="fil1" d="M818.66 1849.24l445.34 0 -28.19 -69.15 -388.95 0 -28.2 69.15zm515.56 0l6.82 0c30.42,0 58.07,12.43 78.08,32.44 20.01,20.02 32.44,47.67 32.44,78.08 0,30.43 -12.43,58.07 -32.44,78.09 -20.01,20.01 -47.66,32.44 -78.08,32.44l-585.85 0c-30.43,0 -58.07,-12.43 -78.08,-32.44 -20.02,-20.02 -32.45,-47.66 -32.45,-78.09 0,-30.41 12.43,-58.06 32.45,-78.08 18.5,-18.51 43.53,-30.53 71.25,-32.23l28.28 -69.36 -541.52 0c-64.92,0 -123.93,-26.54 -166.68,-69.29 -42.74,-42.75 -69.28,-101.75 -69.28,-166.68l0 -1307.31c0,-64.92 26.54,-123.93 69.28,-166.68 42.75,-42.75 101.76,-69.29 166.68,-69.29l1630.07 0c64.93,0 123.94,26.54 166.68,69.29 42.75,42.75 69.29,101.76 69.29,166.68l0 1307.31c0,64.93 -26.54,123.93 -69.29,166.68 -42.74,42.75 -101.75,69.29 -166.68,69.29l-559.17 0 28.2 69.15zm-1248.27 -482.78l1928.41 0 0 -1129.65c0,-40.98 -16.8,-78.27 -43.85,-105.32 -27.05,-27.05 -64.34,-43.85 -105.32,-43.85l-1630.07 0c-40.98,0 -78.27,16.8 -105.32,43.85 -27.05,27.05 -43.85,64.34 -43.85,105.32l0 1129.65zm1928.41 86.8l-1928.41 0 0 90.86c0,40.98 16.8,78.27 43.85,105.32 27.05,27.05 64.34,43.85 105.32,43.85l1630.07 0c40.98,0 78.27,-16.8 105.32,-43.85 27.05,-27.05 43.85,-64.34 43.85,-105.32l0 -90.86zm-673.32 461.08l-585.85 0c-12.46,0 -23.82,5.12 -32.07,13.36 -8.24,8.24 -13.36,19.6 -13.36,32.06 0,12.47 5.12,23.83 13.36,32.07 8.25,8.24 19.61,13.36 32.07,13.36l585.85 0c12.46,0 23.82,-5.12 32.06,-13.36 8.24,-8.24 13.37,-19.6 13.37,-32.07 0,-12.46 -5.13,-23.82 -13.37,-32.06 -8.24,-8.24 -19.6,-13.36 -32.06,-13.36z"/>
  <circle class="fil0" cx="1050.16" cy="1542.75" r="39.33"/>
 </g>
</svg>
