<?xml version="1.0" encoding="UTF-8"?>
<!DOCTYPE svg PUBLIC "-//W3C//DTD SVG 1.0//EN" "http://www.w3.org/TR/2001/REC-SVG-20010904/DTD/svg10.dtd">
<!-- Creator: CorelDRAW 2019 (64-Bit) -->
<svg xmlns="http://www.w3.org/2000/svg" xml:space="preserve" width="2457px" height="2364px" version="1.0" style="shape-rendering:geometricPrecision; text-rendering:geometricPrecision; image-rendering:optimizeQuality; fill-rule:evenodd; clip-rule:evenodd"
viewBox="0 0 2457 2363.98"
 xmlns:xlink="http://www.w3.org/1999/xlink">
 <defs>
  <style type="text/css">
   <![CDATA[
    .fil1 {fill:#D61359}
    .fil0 {fill:white}
   ]]>
  </style>
 </defs>
 <g id="Layer_x0020_1">
  <metadata id="CorelCorpID_0Corel-Layer"/>
  <path class="fil0" d="M14751.75 3495.2c-0.43,-0.68 -0.78,-2.65 -0.9,-2.23l-13.26 -71.54c-3.15,-18.93 1.58,-18.86 11.76,-28.62 8.62,-8.25 14.8,-16.25 24.27,-22.6l-21.87 124.99zm-446.82 -124.99c9.47,6.34 15.7,14.28 24.24,22.65 12.75,12.5 16.2,9.88 13.56,27.12 -3.84,25.12 -12.8,54.31 -12.8,81.47l-3.13 0c0,-10.47 -19.63,-126.22 -21.87,-131.24zm874.82 -105.19c5.55,-10.07 34.94,-39.24 45.69,-44.35l11.26 73.6 -56.95 -29.25zm-1338.99 28.06c1.21,-9.88 8.47,-64.03 14.23,-72.44 13.92,14.67 34.44,27.33 43.69,44.08l-57.92 28.36zm500.15 -71.15c42.79,-6.47 93.13,-6.25 106.06,-31.45 30.95,-60.3 57.99,-126.32 91.36,-184.47 12.51,17.63 35.69,68.63 47.42,92.63 63.36,129.68 33.53,104.76 152.42,122.71 39.74,6 79.94,11.73 119.83,17.56 -14.21,21.07 -52.63,49.35 -72.22,71.62 -8.38,9.54 -11.65,11.07 -18.4,19.07 -56.03,66.42 -71.66,40.76 -60.53,104.56 8.93,51.26 25.37,136.17 30.37,181.09 -39.25,-12.61 -173.44,-98.77 -197.98,-99.03 -22.19,-0.23 -160.66,87.46 -198.53,98.7 4.97,-40.64 13.75,-82.8 20.61,-122.97 20.6,-120.67 21.72,-84.14 -17.88,-129.02 -24.36,-27.6 -102.32,-105.66 -123.35,-120.24l120.82 -20.76zm436.65 -28.17c22.26,-6.47 48.22,-6.34 70.36,-11.85 32.46,-8.07 59.27,-118.25 91.31,-155.39 16.11,18.85 53.09,113.79 71.81,143.75 16.24,26.01 127.05,21.71 175.03,37.29 0.2,9.76 -93.76,94.08 -107.88,107.9 -19.96,19.53 -6.39,55.85 -0.69,88.44 5.43,31.08 12.29,64.67 15.81,96.31 -29.14,-10.72 -138.53,-77.91 -156.71,-76.43 -16.11,1.32 -126.76,68.96 -152.99,77.17 1.46,-16.06 23.54,-162.24 32.04,-173.02 3.66,-4.64 12.9,-11.72 17.87,-16.6 5.87,-5.76 8.72,-10.42 14.52,-16.64 10.96,-11.75 23.38,-22.18 35.41,-33.36 64.88,-60.33 -62.98,-59.93 -105.89,-67.57zm-887.78 14.01c31.21,-6.58 63.51,-9.87 94.48,-14.41 37.96,-5.56 71.07,-4.43 82.77,-23.67 19.23,-31.63 59.42,-127.95 72.3,-143.14 11.2,13.01 43.86,86.46 54.49,108.09 26.37,53.62 18.94,48.35 105.67,58.13 -30.18,13.04 -175.17,2.56 -101.91,69.25l67.36 67.13c5.57,9.43 27.89,155.89 30.09,172.2 -26.26,-10.1 -140.69,-77.41 -155.54,-77.15 -17.99,0.32 -124.73,67.62 -154.16,76.76 5.64,-67.67 40.84,-159.08 14.45,-184.93l-110 -108.26zm1131.59 -92.83c47.6,-6.09 74.98,-3.65 85.92,-26.54 10.92,-22.82 22.74,-58.07 38.16,-75.47 19.96,21.8 24.65,57.53 43.22,82.76 12.53,17.01 74.88,16.58 100.51,22.53 0.2,0.61 0.19,1.6 0.15,1.93 -0.03,0.32 0.07,1.5 -0.01,1.89 -0.08,0.39 -0.19,1.42 -0.33,1.84l-62.3 60.36c-21.42,-11.26 -87.52,-17.33 -117.31,-21.66 -65.69,-9.56 -72.84,0.71 -88.01,-47.64zm-1235.36 3.66c25.13,-4.69 92.97,-6.98 104.04,-22.74 14.47,-20.58 27.8,-64.68 42.69,-84.12 68.92,109.11 0.48,81.34 124.06,103.54 -4.13,13.22 -10.01,35.38 -27.34,39.03 -43.59,9.19 -149.28,14.15 -177.6,29.98 -10.39,-8.89 -59.89,-53.88 -65.85,-65.69zm-46.63 -13.98c0,27.8 7.13,24.32 38.27,55.46 11.04,11.03 28.2,34.34 42.97,38.28 0,24.84 -6.34,52.75 -10.7,76.79 -2.82,15.56 -18.31,60.69 13.82,60.69 20.08,0 74.18,-40.85 99.99,-46.87 13.87,9.29 32.82,31.45 46.35,44.48 14.92,14.35 5.89,23.16 -1.72,68.89l-19.56 114.94c0.15,56.59 84.86,-5.25 106.16,-15.84 110.13,-54.76 58.06,-55.23 164.57,-2.08 12.84,6.41 77.33,42.7 85.4,42.7 8.44,0 8.62,-1.49 15.62,-3.12 0,33.81 -32.53,115.61 9.38,115.61 13.29,0 41.57,-17.68 54.16,-23.95l155.19 -82.29c11.24,5.95 198.55,106.24 206.22,106.24 11.01,0 19.52,-6.15 24.08,-13.57 6.56,-10.69 2.84,-20.08 0.54,-32.88 -3.58,-19.92 -10.4,-48.44 -12.12,-69.16 18.58,1.55 16.89,6.84 47.47,-11.89l136.88 -69.35c14.33,9.59 30.9,17.05 46.87,24.99 17.15,8.53 105.37,62.16 123.23,57.82 30.39,-7.38 13.31,-50.95 7.12,-88.17l-17.35 -98.79c-1.88,-16.85 4.09,-18.11 12.71,-26.35 13.21,-12.65 25.44,-28.55 39.89,-38.23 20.23,5.4 81.03,46.87 96.87,46.87 49.15,0 -3.31,-106.42 3.12,-131.23 3.92,-15.12 84.37,-69.26 84.37,-96.87 0,-19.37 -35.96,-19.56 -55.33,-22.78 -18.76,-3.12 -47.41,-8.46 -69.66,-8.46 -7.21,-13.63 -47.74,-102.28 -57.67,-108.23 -15.86,-9.5 -27.1,2.29 -33.08,14.35 -12.09,24.4 -24.05,47.59 -36.29,73.07 -11.15,23.23 -6,19.45 -33.19,23.06 -17.18,2.28 -34.02,5.87 -49.12,7.12 -1.15,-4.95 -43.12,-103.11 -59.36,-103.11 -30.88,0 -29.36,14.97 -57.29,70.82 -13.9,27.8 -26.68,50.62 -38.62,80.12 -11.43,28.27 -18.47,18.1 -86.24,29.37 -23.51,3.91 -82.92,13.42 -105.32,13.42 -3.75,-16.11 -42.26,-84.15 -53.55,-112.05 -7.55,-18.65 -17.12,-35.54 -26.65,-54.6 -8.2,-16.4 -16.47,-45.83 -38.53,-45.83 -23.12,0 -36.28,41.48 -51.06,70.8l-67.68 141.68 -178.71 -24.39c-10.99,-5.18 -4.34,-3.73 -14.97,-25.65l-54.2 -108.28c-33.16,-66.44 -48.1,-37.12 -72.91,12.5 -7.18,14.35 -22.84,41.47 -26.04,55.2 -96.37,-22.45 -58.25,18.08 -110.4,-86.45 -8.21,-16.45 -30.57,-64.03 -54.28,-15.74l-41.37 83.62c-8.32,13.26 -33.83,11.56 -65.25,15.99 -27.16,3.83 -63.03,3.68 -63.03,21.33z"/>
  <path class="fil1" d="M14220.09 3242.69c21.03,14.58 98.99,92.64 123.35,120.24 39.6,44.88 38.48,8.35 17.88,129.02 -6.86,40.17 -15.64,82.33 -20.61,122.97 37.87,-11.24 176.34,-98.93 198.53,-98.7 24.54,0.26 158.73,86.42 197.98,99.03 -5,-44.92 -21.44,-129.83 -30.37,-181.09 -11.13,-63.8 4.5,-38.14 60.53,-104.56 6.75,-8 10.02,-9.53 18.4,-19.07 19.59,-22.27 58.01,-50.55 72.22,-71.62 -39.89,-5.83 -80.09,-11.56 -119.83,-17.56 -118.89,-17.95 -89.06,6.97 -152.42,-122.71 -11.73,-24 -34.91,-75 -47.42,-92.63 -33.37,58.15 -60.41,124.17 -91.36,184.47 -12.93,25.2 -63.27,24.98 -106.06,31.45l-120.82 20.76z"/>
  <path class="fil1" d="M14777.56 3193.76c42.91,7.64 170.77,7.24 105.89,67.57 -12.03,11.18 -24.45,21.61 -35.41,33.36 -5.8,6.22 -8.65,10.88 -14.52,16.64 -4.97,4.88 -14.21,11.96 -17.87,16.6 -8.5,10.78 -30.58,156.96 -32.04,173.02 26.23,-8.21 136.88,-75.85 152.99,-77.17 18.18,-1.48 127.57,65.71 156.71,76.43 -3.52,-31.64 -10.38,-65.23 -15.81,-96.31 -5.7,-32.59 -19.27,-68.91 0.69,-88.44 14.12,-13.82 108.08,-98.14 107.88,-107.9 -47.98,-15.58 -158.79,-11.28 -175.03,-37.29 -18.72,-29.96 -55.7,-124.9 -71.81,-143.75 -32.04,37.14 -58.85,147.32 -91.31,155.39 -22.14,5.51 -48.1,5.38 -70.36,11.85z"/>
  <path class="fil1" d="M13889.78 3207.77l110 108.26c26.39,25.85 -8.81,117.26 -14.45,184.93 29.43,-9.14 136.17,-76.44 154.16,-76.76 14.85,-0.26 129.28,67.05 155.54,77.15 -2.2,-16.31 -24.52,-162.77 -30.09,-172.2l-67.36 -67.13c-73.26,-66.69 71.73,-56.21 101.91,-69.25 -86.73,-9.78 -79.3,-4.51 -105.67,-58.13 -10.63,-21.63 -43.29,-95.08 -54.49,-108.09 -12.88,15.19 -53.07,111.51 -72.3,143.14 -11.7,19.24 -44.81,18.11 -82.77,23.67 -30.97,4.54 -63.27,7.83 -94.48,14.41z"/>
  <path class="fil1" d="M13786.01 3118.6c5.96,11.81 55.46,56.8 65.85,65.69 28.32,-15.83 134.01,-20.79 177.6,-29.98 17.33,-3.65 23.21,-25.81 27.34,-39.03 -123.58,-22.2 -55.14,5.57 -124.06,-103.54 -14.89,19.44 -28.22,63.54 -42.69,84.12 -11.07,15.76 -78.91,18.05 -104.04,22.74z"/>
  <path class="fil1" d="M15021.37 3114.94c15.17,48.35 22.32,38.08 88.01,47.64 29.79,4.33 95.89,10.4 117.31,21.66l62.3 -60.36c0.14,-0.42 0.25,-1.45 0.33,-1.84 0.08,-0.39 -0.02,-1.57 0.01,-1.89 0.04,-0.33 0.05,-1.32 -0.15,-1.93 -25.63,-5.95 -87.98,-5.52 -100.51,-22.53 -18.57,-25.23 -23.26,-60.96 -43.22,-82.76 -15.42,17.4 -27.24,52.65 -38.16,75.47 -10.94,22.89 -38.32,20.45 -85.92,26.54z"/>
  <path class="fil1" d="M15045.46 2870.27c0,-43.41 -46.25,-4.57 -54.99,1.26 -11.45,7.63 -53.97,32.26 -56.13,43.47 -2.94,15.31 12.53,22.4 23.7,18.08 7.16,-2.77 23,-14.64 30.56,-19.68 9,-6.01 56.86,-35.47 56.86,-43.13z"/>
  <path class="fil1" d="M14033.09 2867.15c0,12.02 34.06,31.12 43.71,37.53 8.3,5.51 16.78,10.04 25.06,15.56 8.81,5.86 15.21,10.49 24.97,15.65 14.66,-7.75 10.99,-4.09 18.75,-18.75 -9.62,-18.18 -32.37,-28.86 -55.62,-44.36 -4.5,-3 -56.87,-45.59 -56.87,-5.63z"/>
  <path class="fil1" d="M14904.86 2748.41c0,-15.09 -6.9,-15.62 -18.75,-15.62 -11.57,0 -29.84,40.72 -35.42,52.07 -12.41,25.26 -30.81,42.95 -17.08,56.68 20.54,20.54 32.7,-18.04 41.32,-32.44 6.51,-10.87 9.5,-16.8 15.31,-28.43 5.33,-10.67 14.62,-20.78 14.62,-32.26z"/>
  <path class="fil1" d="M14708.01 2679.67c-4.89,20.99 -11.02,41.69 -15.37,62.75 -6.3,30.53 -20.69,55.99 9.12,55.99 20.1,0 34.37,-99.14 34.37,-109.36 0,-16.12 -18.4,-13.15 -28.12,-9.38z"/>
  <path class="fil1" d="M14173.7 2745.29c0,15.71 16.11,36.86 27.09,57.27 5.04,9.35 7.43,15.67 12.44,25.06 14.49,27.15 35.46,20.97 35.46,2.03 0,-13.52 -17.8,-38.51 -23.98,-51.01 -15.72,-31.75 -20.36,-45.85 -38.51,-45.85 -7.32,0 -12.5,5.19 -12.5,12.5z"/>
  <path class="fil1" d="M14342.43 2689.05c0,21.32 6.44,39.37 11.27,60.59 5.36,23.49 4.65,48.77 26.22,48.77 7.51,0 9.19,-5.07 15.62,-9.37l-19.95 -92.53c-7.47,-31.76 -33.16,-21.02 -33.16,-7.46z"/>
  <path class="fil1" d="M14523.65 2670.3c0,31.35 -3.52,80.81 3.13,109.36 20.04,4.8 6.04,4.42 25,0 6.65,-28.55 3.12,-78.01 3.12,-109.36 0,-17.19 -31.25,-17.19 -31.25,0z"/>
  <path class="fil1" d="M13840.76 3293.08l57.92 -28.36c-9.25,-16.75 -29.77,-29.41 -43.69,-44.08 -5.76,8.41 -13.02,62.56 -14.23,72.44z"/>
  <path class="fil1" d="M15179.75 3265.02l56.95 29.25 -11.26 -73.6c-10.75,5.11 -40.14,34.28 -45.69,44.35z"/>
  <g id="_2146515849312">
   <g>
    <path class="fil1" d="M435.84 499.14l730.61 0 0 730.62 -730.61 0 0 -730.62zm-68.63 799.24l867.87 0 0 -867.86 -867.87 0 0 867.86z"/>
    <path class="fil1" d="M1368.28 499.14l730.62 0 0 730.62 -730.62 0 0 -730.62zm-68.62 799.24l867.86 0 0 -867.86 -867.86 0 0 867.86z"/>
    <polygon class="fil1" points="1432.87,898.76 2034.32,898.76 2034.32,830.14 1432.87,830.14 "/>
    <polygon class="fil1" points="500.42,1031.96 1101.87,1031.96 1101.87,963.34 500.42,963.34 "/>
    <polygon class="fil1" points="1432.87,1031.96 2034.32,1031.96 2034.32,963.34 1432.87,963.34 "/>
    <polygon class="fil1" points="500.42,632.34 1101.87,632.34 1101.87,563.72 500.42,563.72 "/>
    <polygon class="fil1" points="1432.87,632.34 2034.32,632.34 2034.32,563.72 1432.87,563.72 "/>
    <polygon class="fil1" points="500.42,765.55 968.66,765.55 968.66,696.93 500.42,696.93 "/>
    <polygon class="fil1" points="1566.08,765.55 2034.32,765.55 2034.32,696.93 1566.08,696.93 "/>
    <polygon class="fil1" points="633.63,898.76 1101.87,898.76 1101.87,830.14 633.63,830.14 "/>
    <polygon class="fil1" points="500.42,1165.17 968.66,1165.17 968.66,1096.55 500.42,1096.55 "/>
    <polygon class="fil1" points="1432.87,1165.17 1901.11,1165.17 1901.11,1096.55 1432.87,1096.55 "/>
    <polygon class="fil1" points="367.21,232.72 435.84,232.72 435.84,164.1 367.21,164.1 "/>
    <polygon class="fil1" points="500.42,232.72 569.04,232.72 569.04,164.1 500.42,164.1 "/>
    <polygon class="fil1" points="1033.25,765.55 1101.87,765.55 1101.87,696.93 1033.25,696.93 "/>
    <polygon class="fil1" points="1432.87,765.55 1501.49,765.55 1501.49,696.93 1432.87,696.93 "/>
    <polygon class="fil1" points="500.42,898.76 569.04,898.76 569.04,830.14 500.42,830.14 "/>
    <polygon class="fil1" points="1033.25,1165.17 1101.87,1165.17 1101.87,1096.55 1033.25,1096.55 "/>
    <polygon class="fil1" points="1965.7,1165.17 2034.32,1165.17 2034.32,1096.55 1965.7,1096.55 "/>
    <polygon class="fil1" points="633.63,232.72 702.25,232.72 702.25,164.1 633.63,164.1 "/>
   </g>
   <path class="fil1" d="M1865.18 1736.3c8.75,0 13.92,1.03 21.18,2.83 7.23,1.79 14.39,1 21.79,2.22 4.59,0.76 4.72,2.2 8.49,3.52 3.62,1.27 6.39,0.51 10.1,1.9 4.02,1.5 2.74,2.51 8.4,3.61l16.82 7.19c3.41,2.14 4.89,2.31 7.87,4.14l21.51 14.5c2.65,2.16 4.09,2.92 6.79,5.22l21.87 21.34c1.21,1.41 1.69,1.86 2.82,3.19 2.22,2.61 3.1,3.62 5.19,6.81l23.03 38.2c1.01,1.94 1.1,2.94 1.59,4.42 1.3,4.02 0.45,1.65 1.72,4.27 2.62,5.39 1.33,2.72 2.6,9.41 1.28,6.78 1.71,4.12 3.43,8.58l5.73 30.28c0.1,3.96 -0.2,8.14 -0.08,12.09 0.18,6.04 1.32,6.15 1.32,11.97 0,4.91 -1.04,6.19 -1.29,10.8 -0.97,17.98 0.08,12.93 -3.72,32.29 -2.37,12.09 -4.18,12.37 -5.38,18.63 -0.34,1.76 -0.43,3.55 -0.89,5.12 -3.23,11.06 -9.6,22.39 -15.58,32.44 -1.65,2.78 -0.55,0.6 -2.17,3.84 -4.22,8.45 -10.14,15.07 -16.23,22.18 -9.4,10.96 -14.56,16.76 -25.99,25.63 -16.09,12.51 -39.73,28.23 -60.02,32.43 -7.99,1.65 -9.57,3.74 -18.73,5.27 -7.86,1.32 -10.62,3.34 -20.56,3.45 -11.62,0.13 -29.04,1.42 -41.01,0.2l-15.23 -2.78c-4.2,-1.37 -10.69,-0.93 -15.44,-2.57 -3.31,-1.14 -1.72,-1.3 -5.74,-2.67 -6.75,-2.3 -13.8,-3.73 -20.38,-7.23 -0.63,-0.33 -2.13,-1.36 -2.2,-1.4l-64.33 -35.31c-1.11,-0.56 -1.58,-0.66 -3.18,-1.62l-54.03 -31.21c-1.4,-0.82 -1.71,-0.73 -3.26,-1.54l-94.71 -54.15c-0.21,-0.15 -0.48,-0.38 -0.69,-0.52l-7.79 -4.21c-1.85,-1.11 -3.25,-1.91 -5.2,-3.21l-28.82 -16.8c-2.52,-1.41 -3.08,-1.33 -5.52,-2.88l-32.3 -18.13c-1.71,-1.02 -0.9,-0.84 -2.74,-2.06l-6.81 -2.79c1.32,-2.49 1.03,-3.19 3.44,-4.96 2.54,-1.87 0.47,-0.17 3.19,-1.62l54.29 -30.95c0.21,-0.14 0.49,-0.35 0.7,-0.5l31.33 -17.89c0.3,-0.19 1.1,-0.81 1.4,-1l7.53 -4.48c2.42,-1.54 2.92,-1.48 5.5,-2.9l78.6 -45.06c2.07,-1.25 0.9,-0.45 3.19,-1.6 3.77,-1.9 2.9,-1.93 5.97,-3.64l11.66 -6.35c3.25,-1.71 2.3,-1.67 5.15,-3.26l70.48 -39.96c3.48,-1.83 0.3,-0.11 2.97,-1.84l20.23 -10.98c6.72,-3.25 19.88,-9 26.94,-10.28 11.79,-2.13 -2.84,-2.42 22.65,-4.96 9.8,-0.98 12.9,-4.66 32.55,-4.66zm-1851.21 -1735.46l2442.19 0c0,686.67 -3.92,1366.05 -3.92,2050l-169.27 0c-5.93,8.86 -3.58,11.69 -7.48,18.94 -3.09,5.74 -1.1,4.27 -2.87,10.33l-15.53 37.3 -48.81 79.64c-2.14,2.59 -3.88,4.76 -5.91,7.3l-37.09 40.95 -73.88 56.98c-0.22,0.13 -0.53,0.3 -0.76,0.43 -0.23,0.14 -0.54,0.3 -0.76,0.44 -1.7,1.04 -0.16,-0.03 -2.19,1.42l-31.65 17.57c-1.5,0.59 -0.48,-0.07 -2.67,0.93l-7.82 4.18c-7.2,2.79 -16,7.6 -22.99,9.43 -6.17,1.6 -4.28,2.65 -9.08,4.12 -5.69,1.75 -3.65,-0.33 -9.31,2.7 -5.26,2.81 -3.83,1.7 -10.23,2.98 -5.37,1.07 -4.71,2.4 -9.44,3.77 -4.74,1.37 -6.41,0.24 -11.08,2.12 -10.11,4.1 -13.97,2.22 -20.8,4.41 -10.49,3.37 -11.08,3.26 -22.64,3.77 -5.03,0.23 -6.22,1.22 -9.87,2.14 -9.9,2.49 -89.57,2.69 -101.27,1.02l-23.15 -3.26c-8.84,-0.87 -11.04,-4.38 -20.54,-4.67 -10.2,-0.32 -11.94,-3.44 -21.59,-4.83 -7.13,-1.02 -4.28,-1.87 -9.47,-3.74 -4.33,-1.56 -5.74,-0.29 -10.49,-2.71l-9.95 -3.26c-6.2,-1.26 -3.73,-2.31 -9.27,-3.93 -6.09,-1.78 -4.67,0.35 -10.33,-2.88l-45.33 -21.9c-5.11,-1.85 -9.73,-5.56 -14.54,-8.27l-32.02 -18.4c-0.23,-0.13 -0.54,-0.3 -0.78,-0.43l-37.82 -20.99c-2.02,-1.14 -1.82,-1.33 -3.6,-2.41l-32.89 -18.73c-2.67,-1.7 -0.97,-0.6 -3.92,-2.08l-5.98 -3.63c-1.32,-0.75 -1.09,-0.49 -2.39,-1.21 -0.87,-0.48 -1.43,-0.83 -2.24,-1.36l-80.96 -46.3c-1.73,-0.84 -0.34,0.03 -2.38,-1.22l-25.78 -15.05c-2.13,-1.26 -0.09,-0.21 -2.28,-1.31l-46.91 -26.33c-3.2,-1.97 -0.26,-0.25 -2.07,-1.52 -0.82,-0.57 -0.28,-0.35 -2.15,-1.46l-12.42 -6.78c-2.12,-1.35 -0.03,-0.21 -2.13,-1.48 -1.54,-0.93 -0.56,-0.32 -2.37,-1.23 -1.77,-0.89 -2.01,-0.88 -3.91,-2.09 -2.13,-1.36 -1.27,-1.07 -3.68,-2.33l-41.22 -23.61c-1.47,-0.83 -2.6,-1.18 -4.06,-1.94l-16.8 -9.61c-2.02,-1.14 -1.81,-1.33 -3.6,-2.41l-25.21 -14.4c-3.41,-2.06 -8.69,-6.21 -12.11,-5.9l-34.45 19.57c-2.14,1.03 -0.32,0.05 -2.22,1.39 -0.2,0.14 -0.44,0.4 -0.64,0.55 -0.2,0.15 -0.45,0.41 -0.65,0.55l-8.02 3.99c-3.31,2.11 -5.73,3.4 -9.03,5.38l-15.82 9.39c-1.08,0.72 -0.2,0.27 -2.26,1.34l-48.96 27.87c-0.23,0.13 -0.53,0.31 -0.76,0.45l-186.68 106.24c-10.95,5.69 -20.79,12.84 -31.97,18.46 -16.38,8.22 -32.28,18.57 -48.19,27.44 -0.23,0.13 -0.55,0.29 -0.78,0.42l-5.22 3.18c-2.53,1.76 -1.82,1.2 -4.59,2.62l-37.04 19.39c-3.04,1.33 -2.15,1.32 -4.6,2.6 -7.05,3.68 -28.39,14.58 -34.71,15.71 -3.11,0.56 -3.23,0.25 -5.84,1.37 -15.37,6.55 -20.94,6.84 -26.91,9.1 -4.32,1.63 -3.07,2.84 -9.44,3.77 -7.1,1.02 -5.68,0.7 -11.51,2.89 -7.57,2.84 -15.65,1.65 -24.01,4.8l-24.49 4.33c-14.29,2.81 -85.19,1.97 -98.32,1.35 -10.17,-0.49 -14.95,-3.58 -25.23,-3.58 -5.64,0 -8.14,-0.46 -12.15,-2.26 -4.77,-2.14 -3.95,-2.41 -10.63,-2.58 -8.48,-0.22 -13.03,-2.89 -23.68,-5.13 -3.94,-0.83 -6.32,-3.32 -10.26,-4.14 -7.07,-1.48 -5.23,0.3 -11.41,-3.01l-31.35 -11.87c-7.79,-2.31 -16.62,-7.31 -23.62,-11.18 -2.47,-1.36 -1.43,-1.12 -4.64,-2.57l-14.75 -8.06c-0.21,-0.15 -0.5,-0.35 -0.72,-0.49l-53.81 -36.23c-2.86,-2.27 -4.95,-4 -7.76,-6.64 -3.02,-2.83 -4.78,-4.14 -7.84,-6.57 -6.1,-4.84 -9.62,-8.13 -15.15,-13.66 -2.67,-2.67 -4.47,-4.6 -7.2,-7.21l-9.19 -8.82c-6.42,-6.49 -11.24,-14.49 -17.49,-20.92 -9.35,-9.63 -17.3,-21.5 -25.08,-32.54l-4.15 -6.66c-0.19,-0.3 -0.79,-1.12 -0.99,-1.41 -2.05,-3.12 -3.28,-5.63 -5.45,-8.96 -1.32,-2.02 -1.57,-2.73 -2.69,-4.51l-30.82 -61.62c-0.99,-2.37 -1,-3.65 -1.59,-5.61 -2.01,-6.73 0.16,-0.23 -2.3,-4.91 -3.4,-6.47 -6.44,-28.46 -11.95,-31.27 -5.4,-2.76 -156.2,-0.95 -169.53,-0.95l0 -4.8c0,-681.74 0.01,-1363.46 0.01,-2045.2zm2358.85 83.33l-2275.52 0c0,595.36 -1.7,1189.23 -1.7,1782.99l-0.01 87.65c-0.07,6.88 -1.89,12.07 3.59,13.21l68.25 -0.21c5.76,-2.11 2.12,-25.18 1.58,-30 -0.73,-6.43 0.08,-12.47 0.69,-16.95 0.74,-5.34 0.33,-11.04 0.33,-16.49 -0.01,-35.69 4.39,-25.93 4.8,-46.82l5.13 -28.49c1.17,-4.88 3.17,-7.47 3.97,-12.84 0.65,-4.42 0.43,-4.6 1.72,-7.87 1.12,-2.82 1.45,-2.38 2.32,-6.09l29.4 -72.65c1.79,-4.94 0.54,-2.09 2.71,-5.7l24.2 -39.42c0.14,-0.21 0.34,-0.5 0.49,-0.72l8.75 -11.65c0.15,-0.2 0.38,-0.47 0.53,-0.67 0.15,-0.21 0.35,-0.5 0.5,-0.7l3.56 -4.84c0.16,-0.2 0.39,-0.46 0.54,-0.66l23.5 -28.13c0.17,-0.18 0.42,-0.43 0.59,-0.61 0.16,-0.18 0.4,-0.45 0.57,-0.63l23.31 -23.51c11.11,-9.83 38.32,-33.53 49.69,-40.35l60.68 -34.17c2.06,-0.87 0.51,-0.16 2.39,-1.21l17.42 -7.79c5.19,-1.49 2.1,-0.81 5.84,-2.56l25.62 -9.2c5.1,-2.48 7.93,-1.71 13.35,-3.46 2.86,-0.92 3.16,-1.7 5.93,-2.47l11.36 -1.85c3.67,-1.04 0.98,-0.25 3.47,-1.33 6.44,-2.79 14.51,-2.28 21.25,-3.96 17.85,-4.45 9.68,-2.04 29.19,-4.43 25.84,-3.16 54.61,-6.45 80.51,-0.89 5.99,1.29 8.66,0.74 15.73,1.09 18.85,0.94 16.46,3.04 29.61,5.2 5.13,0.84 10.51,0.17 15.61,2.39 5.29,2.31 8.16,2.19 13.86,2.96 6.25,0.85 6.66,2.67 12.67,4.14 1.27,0.31 5.06,0.9 6.76,1.63 12.28,5.28 7.07,2.11 13.56,4.45 3.28,1.19 -0.22,-0.11 3.14,1.67l18.6 6.61c7.06,2.29 12.98,6.18 19.68,9.13l40.04 19.99c0.31,0.18 1.22,0.68 1.53,0.87l8.38 4.83c0.21,0.14 0.47,0.37 0.67,0.52 0.21,0.15 0.45,0.41 0.65,0.56l33.04 18.58c0.21,0.14 0.48,0.36 0.69,0.51 0.21,0.14 0.48,0.37 0.69,0.51l8.4 4.8c0.22,0.14 0.49,0.36 0.71,0.5l37.59 21.23c2.38,1.24 3.7,2.23 6.06,3.55l10.73 6.08c2.84,1.59 1.89,1.55 5.14,3.25l87.29 49.58c2.44,1.34 1.12,0.78 2.96,1.84 0.23,0.13 0.53,0.31 0.77,0.44l2.43 1.17c3.54,1.79 2.66,1.67 5.2,3.2l98 55.67c2.2,1.34 1.12,0.92 2.84,1.95l78.83 44.84c11.81,5.49 13.29,13.82 26.83,5.39l81.82 -46.64c2.64,-1.91 -1.75,0.57 2.1,-1.51 2.61,-1.41 1.12,-0.3 3.47,-1.33l28.06 -16.36c0.2,-0.14 0.45,-0.4 0.65,-0.54l8.41 -4.8c0.2,-0.15 0.46,-0.39 0.67,-0.53l24.32 -14.1c3.07,-1.77 3.4,-1.17 5.9,-2.5l33.54 -19.29c0.21,-0.14 0.48,-0.37 0.69,-0.51l1.36 -1.04c0.21,-0.14 0.49,-0.35 0.71,-0.49l40.62 -23c0.21,-0.15 0.47,-0.38 0.68,-0.52 0.22,-0.15 0.5,-0.35 0.72,-0.49l121.09 -68.6c1.26,-0.7 1.46,-0.93 2.19,-1.41l32.91 -18.71c2.17,-1.39 2.73,-1.93 5.15,-3.25l68.32 -33.73c4.42,-1.31 0.31,0.14 3.35,-1.45l22.49 -7.52c6.9,-1.63 6.83,-3.2 13.4,-4.61 7.63,-1.63 5.29,-3.06 12.43,-4.38l89.76 -13.49c13.99,-1.84 35.03,-0.37 49.6,0.34 8.36,0.4 7.99,0.65 14.88,1.92 10.89,2.02 19.98,1.13 29.63,3.99 4.74,1.4 10.19,1.9 15.54,2.46l26.57 7.05c5.01,2.14 18.58,4.28 26.72,8.1l29.73 12.29c17.04,8.14 35.12,15.39 50.79,26.04 2.5,1.7 1.01,0.98 2.66,2.14l8.21 5c1.62,0.91 1.56,0.67 3.19,1.61 3.42,1.97 0.13,0.02 2.17,1.43l19.29 14.32c0.2,0.16 0.46,0.4 0.65,0.55l23.27 18.76c1.69,1.73 2.16,2.2 4.26,4.14 0.18,0.16 0.44,0.41 0.62,0.57l43.86 44.99c1.2,1.29 0.61,0.58 1.75,1.85l34.08 48.76c0.72,1.17 0.59,1.11 1.31,2.29l12.47 21.15 34.24 85.81c1.77,8.62 -0.49,6.12 3.2,13.6 2.97,6 1.28,7.49 2.58,14.23 0.56,2.87 1.53,3.4 2.54,7.07 2,7.23 0.9,15.02 2.22,23 0.79,4.79 3.08,6.95 3.35,13.44 0.29,6.71 0.4,10.52 1,15.82 2.02,18.06 0.17,48.83 0.17,68.25l73.24 0c3.37,-14.47 1.2,-61.29 1.2,-80.43 0,-601.3 1.01,-1201.47 1.01,-1803.4zm-1766.99 2041.1c-8.79,0 -14.69,-0.58 -21.68,-1.13 -3.53,-0.27 -7.09,0.18 -10.6,-0.2l-18.87 -3.95c-7.05,-1.34 -7.41,-3.42 -13.5,-4.5 -6.07,-1.09 -15.93,-4.52 -20.98,-7.84 -14.16,-9.28 -21.47,-9.15 -37.27,-22.75l-12.47 -10.34c-2.18,-1.95 -3.54,-2.95 -5.7,-5.1 -2.34,-2.33 -3.66,-4.04 -5.57,-6.45l-15.51 -19.3c-2.36,-3.28 -2.89,-3.08 -4.9,-7.11l-8.34 -15.66c-1.35,-2.21 -2.47,-4.79 -3.75,-7.06 -4.37,-7.74 -7.7,-23.45 -9.35,-26.67 -3.45,-6.73 -7.2,-30.81 -7.2,-39.62 0,-16.69 -1.9,-36.81 2.52,-52.7 1.51,-5.43 1.85,-13.73 4.25,-18.56 4.36,-8.78 5.05,-19.61 13.09,-33.73l8.24 -14.57c5.3,-10.11 13.46,-19.18 20.77,-28.45l6.96 -7.44c0.19,-0.17 0.45,-0.41 0.64,-0.57l34.58 -26.65c6.4,-2.87 21.09,-12.66 26.75,-14.07 2.17,-0.54 2.47,-0.16 5.09,-0.91 5.18,-1.48 2.76,-2.16 8.47,-3.53 4.39,-1.06 4.87,-0.24 8.91,-1.9 3.16,-1.3 3.81,-2.75 8.71,-3.3 7.88,-0.88 13.58,-0.31 20.72,-2.08 11.55,-2.86 26.24,-2.62 38.04,-1.68 7.92,0.63 8.15,2.01 14.81,3.19 7.21,1.29 9.41,-0.75 15.78,2.23 2.92,1.36 1.5,1.37 5.88,2.53 3.82,1.01 4.2,0.47 7.7,1.91l40.08 18.74c3.66,2.04 0.58,0.5 2.83,1.97l11.46 6.55c2.66,1.44 0.65,0.19 3.08,1.73l14.69 8.11c3.49,1.68 0.54,0.14 2.29,1.31l23.56 13.66c2.76,1.56 0.86,0.68 2.87,1.93l81.99 46.47c2,1.28 0.18,0.41 2.88,1.92 1.47,0.82 1.72,0.73 3.26,1.54 3.25,1.71 2.3,1.67 5.15,3.26 3.05,1.71 3.21,1.43 6.22,3.38 0.56,0.37 1.01,0.77 2.18,1.42 1.47,0.82 1.72,0.74 3.26,1.55l70.26 40.18c2.35,1.7 0.62,0.7 2.89,1.91 1.23,0.66 1.73,0.68 3.27,1.54l16.8 9.61c1.88,1.06 1.11,0.85 2.89,1.91l19.11 10.91c4,2.11 4.46,0.86 5.72,6.28 -2.48,1.19 -3.32,1.04 -5.81,2.58l-25.92 14.91c-0.21,0.14 -0.47,0.38 -0.67,0.52 -0.21,0.15 -0.48,0.38 -0.69,0.52 -0.21,0.14 -0.48,0.36 -0.7,0.49l-31.41 17.82c-15.68,10.01 -33.42,17.87 -49.01,27.82 -2.12,1.35 -0.02,0.21 -2.13,1.47l-129.21 73.69c-0.32,0.17 -1.23,0.67 -1.55,0.85l-11.19 6.81c-0.31,0.19 -1.23,0.69 -1.56,0.85 -1.65,0.83 -1.58,0.52 -3.38,1.42l-13.54 8.07c-0.22,0.14 -0.53,0.31 -0.76,0.44l-58.31 26.93c-4.41,1.95 -10.18,1.27 -21.54,4.87 -6.25,1.98 -17.77,2.02 -25.58,2.02zm-30.02 82.84c14.45,0 50.51,2.16 63.06,-1.77 5,-1.56 5.01,-2.74 11.38,-3.02 13.13,-0.58 13.19,-3.29 23.98,-4.83 7.55,-1.09 4.31,-2.27 10.37,-4.04 6.42,-1.88 15.9,-3.83 21.83,-6.99l78.76 -42.49c1.34,-0.84 0.1,-0.12 1.39,-1.01l5.44 -2.97c3.63,-1.64 1.56,-0.67 4.53,-2.67 1.83,-1.23 2.32,-1.45 4.54,-2.66l22.78 -13.24c8.36,-3.54 19.6,-10.53 27.52,-15.7l46.53 -26.7c1.15,-0.61 1.08,-0.37 2.5,-1.1 7.86,-4.03 14.94,-9.63 22.69,-13.33 1.4,-0.67 0.91,-0.2 2.54,-1.06l14.44 -8.37c3.77,-1.92 1.4,-0.5 4.61,-2.59l78.6 -45.06c2.73,-1.43 2.02,-0.74 4.74,-2.46 2.63,-1.67 0.96,-0.95 4.48,-2.72l13.73 -7.88c2.25,-1.44 2.36,-1.24 4.73,-2.48l13.55 -8.05c2,-1.13 2.87,-1.24 4.81,-2.4l23.81 -13.41c2.37,-1.35 1.87,-1.5 4.23,-2.97l13.8 -7.81c0.16,-0.11 0.46,-0.46 2.15,-1.45l73.94 -42.51c1.87,-1.22 0.28,-0.33 2.36,-1.25l28.57 -15.84c2.27,-1.38 1.28,-1.27 4.38,-2.82 2.6,-1.3 2.39,-0.75 4.93,-2.28l4.34 -2.87c1.3,-0.72 1.07,-0.45 2.39,-1.21 2.52,-1.44 1.02,-0.72 2.89,-1.9 2.24,-1.43 2.37,-1.25 4.73,-2.48 22.47,-11.74 43.74,-26.64 66.42,-38.03 2.56,-1.29 0.97,-0.37 3.09,-1.72 2.6,-1.65 1,-0.96 4.48,-2.72l32.16 -18.26c2.4,-1.24 2.49,-1.06 4.71,-2.48l60.23 -34.62c13.46,-8.55 27.73,-14.99 41.13,-23.7l77.1 -44.16c2.1,-1.16 1.2,-0.47 3.34,-1.46 3.86,-1.8 1.61,-0.79 4.51,-2.69l3.74 -2.26c0.22,-0.14 0.53,-0.32 0.75,-0.45l22.9 -13.12c2.64,-1.22 2.34,-0.81 4.82,-2.38l27.29 -15.93c4.33,-2.17 5.54,-3.57 9.87,-5.74l92.99 -52.27c3.16,-1.43 2.33,-1.37 4.62,-2.58 3.39,-1.79 2.14,-0.8 5.23,-1.98 2,-0.76 0.68,-0.08 2.48,-1.12l7.11 -3.7c7.06,-2.74 11.7,-7.6 19.63,-9.18l44.54 -14.28c4.63,-0.64 10.28,-0.38 13.27,-1.14 5.03,-1.28 6.89,-3.25 11.81,-3.8l53.9 -4.92 26.44 1.17c9.92,0.48 10.49,1.12 18.83,2.78 10.71,2.13 15.96,0.46 28.07,4.34 4.77,1.53 3.91,0.83 9.44,1.37 7.19,0.69 7.39,3.8 16.88,4.73 5.38,0.52 18.88,6 24.07,8.34 3.45,1.57 4.8,0.99 8.26,2.55 2.43,1.09 0.11,0.3 3.08,1.72l66.78 36.46c8.46,6.41 16.47,11.61 24.7,18.53l25.47 23.75c0.17,0.18 0.41,0.44 0.58,0.62l23.99 27.63c0.16,0.19 0.39,0.47 0.54,0.66 1.12,1.44 1.42,2.1 2.44,3.56l33.21 53.23c2.11,3.99 1.67,1.55 3.72,7.08 1.72,4.62 2.38,5 3.8,8.21l3.5 7.3c1.02,1.86 0.72,0.94 1.44,3.37l12.15 37.08c1.86,4.57 1.65,2.04 2.46,8.34 1.03,8.04 4.24,11.46 4.7,16.91 0.53,6.24 0.13,13.52 1.76,19.85 4.64,17.96 3.14,4.11 3.04,29.37 -0.03,9.15 1.2,13.54 1.26,21.57 0.05,8.77 -1.28,12.55 -1.3,20.4 0,7.16 0.28,14.62 0.11,21.72 -0.14,6.36 -0.1,4.11 -1.96,8.85 -3.05,7.76 -0.72,20.65 -4.15,28.25 -1.93,4.26 -1.67,0.71 -2.92,7.89 -0.63,3.64 -0.42,6.15 -1.49,9.32 -1.34,3.94 -1.8,2.73 -2.89,7.91 -0.56,2.64 -0.82,6.08 -1.95,8.86 -1.68,4.17 -1.84,1.72 -3.39,7.42l-5.58 16.02c-4.1,12.4 -17.83,38.6 -25.65,49.99l-3.93 6.87c-0.99,1.57 -0.64,0.8 -1.91,2.89l-37.68 47.56c-0.16,0.19 -0.4,0.45 -0.56,0.64l-31.46 29.77 -45.56 31.27 -42.87 21.96c-3.27,1.35 -5.28,1.1 -8.37,2.44 -3.19,1.39 -2.81,2.01 -7.59,3.22l-4.74 1.26c-3.11,1.32 -2.15,2.01 -6.41,3.19 -1.78,0.5 -2.43,0.4 -5.14,0.86 -6.4,1.11 -10.64,3.81 -17,4.61 -7.21,0.92 -3.22,-0.07 -8.43,2.38 -3.26,1.53 1.24,0.32 -3.53,1.27 -7.84,1.55 -16.55,0.38 -24.46,3.15 -12.2,4.27 -76.11,3.75 -90.5,1.71 -4.19,-0.6 -4.51,-2.04 -9,-3.01 -7.82,-1.7 -15.24,-0.96 -21.52,-3.68 -5.34,-2.32 -10.11,-1.03 -16.35,-2.86 -4.79,-1.41 0.1,0.21 -4.18,-1.83 -4.55,-2.18 -5.94,-1.48 -10.31,-2.9l-148.86 -75.63c-0.26,-0.12 -0.6,-0.23 -0.86,-0.35l-38.1 -21.92c-9.8,-5.94 -20.2,-10.54 -29.8,-17.02 -2,-1.34 0.26,-0.07 -2.04,-1.57l-9.27 -5.13c-0.22,-0.14 -0.51,-0.34 -0.73,-0.47l-22.08 -12.73c-3.7,-2.47 -0.01,-0.42 -3.85,-2.16l-48.31 -27.32c-0.22,-0.14 -0.5,-0.34 -0.72,-0.48l-56.46 -32.38c-3.35,-2.42 -0.1,-0.49 -3.7,-2.3 -1.51,-0.76 -2.18,-0.96 -4,-2.01l-56.74 -32.1c-5.64,-3.15 -11.04,-8.42 -17.46,-8.95 1.58,-6.78 5.97,-7 11.36,-10.25l25.32 -14.3c6.53,-3.55 31.93,-19.87 36.55,-19.87 2.17,0 3.75,1.77 6.46,3.15l82.54 47.11c0.31,0.19 1.18,0.73 1.5,0.91 1.59,0.89 2.52,1.18 3.99,2.01 0.23,0.12 0.53,0.31 0.76,0.44l45.73 26.3c2.29,1.16 1.12,0.36 3.19,1.61l74.88 42.78c2.7,1.51 0.88,0.64 2.88,1.92 1.42,0.9 1.19,0.76 3.08,1.72l136.37 76.12c8.56,3.4 17.77,7.67 27.09,10.13 5.32,1.41 3.38,1.78 7.55,3.25 3.09,1.1 5.31,0.8 9.01,1.8 3.95,1.07 4.14,1.82 7.9,2.91 6.6,1.91 11.9,0.19 18.77,2.84 14.79,5.72 52.08,3.1 68.92,3.1 11.71,0 16.54,-4.36 26.44,-4.78 8.25,-0.35 6.82,0.41 12.97,-2.63 6.44,-3.19 6.36,-1.02 12.88,-2.73 2.2,-0.57 2.9,-1.29 4.92,-2.28l44.33 -18.1c0.57,-0.34 1.7,-1.21 2.11,-1.49l40.59 -26.64c1.47,-1.07 2.3,-1.87 3.95,-3.26l10.1 -9.1c0.26,-0.24 1,-0.91 1.25,-1.15 15.2,-14.56 29.78,-30.05 41.05,-47.8 8.2,-12.92 17.85,-26.44 22.71,-40.91l6.94 -17.08c2.68,-5.1 1.93,-7.14 3.95,-11.65l3.54 -12.07c0.9,-6.38 2.37,-5.64 3.91,-11.7 0.83,-3.26 0.22,-9.59 1.17,-14.43 2.06,-10.51 4.5,-11.07 4.5,-27.91 0,-19.08 1.43,-40.09 -1.22,-58.81 -0.87,-6.18 -2.84,-7.63 -3.45,-12.15 -0.75,-5.57 0.02,-9.96 -1.26,-14.35 -1.97,-6.71 -2.85,-4.09 -3.75,-13.05 -0.63,-6.26 -7.77,-21.84 -10.03,-29.59l-34.53 -60.32c-0.15,-0.2 -0.38,-0.47 -0.54,-0.66l-35.46 -38.97 -33.24 -25.59c-8.58,-6.36 -18.94,-12.45 -28.87,-16.75l-13.29 -5.92c-5.86,-2.09 -3.7,-2.56 -12.17,-4.64l-8.25 -3.75c-2.07,-0.7 -4.65,-0.82 -6.85,-1.55 -4.94,-1.64 -6.85,-2.9 -13.08,-3.73 -13.38,-1.81 -0.87,-2.48 -27.13,-5.28 -22.3,-2.39 -12.28,-3.83 -44.2,-3.83 -8.23,0 -46.54,4.15 -52.21,6.61 -4.72,2.05 1.13,0.65 -5.43,1.78 -20.23,3.47 -23.3,7.31 -33.47,9.75l-142.13 76.36c-1.4,0.67 -0.91,0.2 -2.55,1.06 -2.68,1.41 -2.1,1.68 -4.25,2.95 -0.23,0.14 -0.54,0.3 -0.77,0.43l-23.02 12.99c-7.19,5.06 -16.49,8.57 -23.93,13.3l-16.08 9.13c-1.73,1.03 -0.64,0.61 -2.85,1.95l-32.9 18.72c-2.25,1.45 -2.33,1.24 -4.72,2.49l-41.9 24.12c-0.23,0.13 -0.53,0.31 -0.76,0.45l-1.44 0.95c-0.25,0.16 -2.18,1.38 -2.21,1.4l-41.95 24.08c-3.05,1.42 -2.55,0.43 -5.83,2.57l-25.54 15.28c-1.91,1.35 -0.07,0.33 -2.23,1.36l-35.31 19.93c-1.94,0.92 -0.53,0.1 -2.33,1.27l-9.86 5.74c-2.22,1.39 -2.34,1.24 -4.72,2.49l-211.6 120.95c-7.56,5.36 -16.68,8.9 -24.44,13.97l-4.49 2.72c-1.45,0.71 -0.68,0.14 -2.46,1.13l-35.08 20.15c-0.22,0.14 -0.48,0.37 -0.69,0.51 -0.22,0.14 -0.48,0.37 -0.69,0.51l-3.09 1.71c-1.44,0.71 -0.71,0.16 -2.47,1.14l-11.86 7.34c-2,1.12 -2.88,1.24 -4.81,2.4 -2.22,1.33 -1.38,1.23 -4.39,2.81l-15.42 8.6c-0.21,0.14 -0.49,0.35 -0.71,0.49 -0.22,0.13 -0.52,0.32 -0.74,0.45 -1.54,0.9 -1.09,0.5 -2.39,1.21l-12.16 7.05c-1.31,0.76 -0.65,0.37 -2.37,1.24l-48.8 28.03c-1.47,0.82 -1.72,0.73 -3.26,1.54l-56.36 32.48c-2.37,1.24 -2.48,1.04 -4.73,2.48l-32.89 18.73c-2.62,1.58 -1.7,1.39 -4.4,2.8 -2.36,1.23 -2.49,1.06 -4.73,2.48l-66.51 37.93c-0.41,0.25 -2.08,1.44 -2.13,1.47l-43.32 21.51c-0.25,0.12 -0.56,0.28 -0.8,0.4 -10.81,5.73 -20.18,6.48 -29.78,11.04l-11.89 3.72c-5.65,2.67 -11.18,2.38 -17.79,3.82 -5.62,1.23 -4.23,2.24 -11.18,3.23 -3.07,0.43 -11,0.81 -13.98,1.62 -5.65,1.55 -2.94,2.96 -11.27,3.14 -5.08,0.11 -10.63,-0.35 -15.68,-0.08 -5.44,0.29 -6.56,1.24 -13.16,1.25 -13.36,0.02 -49.86,0.28 -59.44,-3.07 -8.59,-3 -16.87,-1.11 -30.3,-5.72 -3.02,-1.04 -7.8,-1.16 -10.33,-1.68 -7.08,-1.45 -3.26,-1.71 -8.6,-3.4 -3.54,-1.12 -6.33,-0.69 -9.94,-2.07l-17.16 -6.84c-3.75,-1.7 -5.12,-0.93 -9.16,-2.85 -11.1,-5.28 -22.79,-9.68 -33.18,-16.04l-5.93 -3.68c-3.26,-2.12 -4.78,-2.27 -7.69,-4.31 -2.3,-1.61 -0.77,-1.02 -3.44,-2.57l-11.35 -6.65c-0.2,-0.15 -0.47,-0.38 -0.67,-0.54l-33.69 -26.33c-0.17,-0.18 -0.42,-0.43 -0.6,-0.6 -0.04,-0.05 -1.62,-1.49 -1.88,-1.72l-12.54 -11.47c-1.4,-1.33 -1.55,-1.53 -3.01,-3l-14.47 -15.54c-2.93,-2.66 2.52,-1.31 -3.99,-2.02 -0.45,-5.5 -1.4,-3.27 -4.06,-6.74 -0.15,-0.2 -0.34,-0.5 -0.49,-0.71 -0.69,-0.97 -0.59,-1.16 -1.86,-2.94l-5.14 -6.86c-7.35,-8.98 -13.07,-18.9 -19.5,-28.53l-32.77 -70.47c-6.29,-14.65 -0.8,-5.17 -6.83,-19.59 -2.08,-4.96 -0.81,-8.85 -2.7,-14.1 -5.68,-15.78 -1.84,-16.66 -5.2,-29.61 -1.46,-5.62 -3.08,-8.25 -3.08,-14.94l0 -72.03c0,-8.33 1.71,-11.5 3.28,-17.13 1.95,-6.99 0.84,-11.05 1.52,-18.89 0.57,-6.63 3.92,-7.54 4.73,-15.68 0.42,-4.16 0.12,-4.96 1.45,-8.15 3.71,-8.84 2.67,-11.06 4.44,-15.97 1.47,-4.05 2.14,-2.81 3.46,-7.35l37.27 -75.57 36.26 -46.59c2.42,-2.5 2.55,-2.32 5.21,-5.58l35.51 -31.73c11.93,-10.03 20.95,-15.03 33.54,-22.88 0.22,-0.14 0.5,-0.35 0.72,-0.49 0.21,-0.14 0.48,-0.36 0.69,-0.5l39.31 -20.72c3.41,-1.47 3.38,-0.64 6.99,-2.62 4.19,-2.29 10.41,-3.23 14.69,-5.72l14.67 -5.74c4.43,-2 3.96,-0.7 9.26,-1.54l33.16 -8.85c6.64,-1.22 13.09,0.08 19.07,-1.35 19.61,-4.68 44.77,-4.64 65.56,-2.52 2.8,0.29 7.69,1.62 10.07,1.93 12.02,1.59 21.91,0.77 33.45,4.97 8.26,3 12.2,-0.49 21.27,3.94 4.71,2.3 3.93,1.39 9.52,2.49 5.66,1.12 4.79,2.55 9.28,3.93 5.1,1.56 4.21,-0.02 9.45,2.55 6.03,2.95 3.27,1.48 10.05,3.16 4.71,1.16 3.38,2.1 8.1,3.9 10.87,4.17 24.07,11.96 30.02,14.4l1.8 0.6c0.28,0.11 0.61,0.2 0.88,0.32l25.31 14.31c2.95,1.53 4.04,2.63 7.59,4.42l96.27 54.99c2.68,1.7 0.98,0.6 3.92,2.08l97.69 55.99c0.23,0.13 0.55,0.28 0.79,0.41 0.25,0.12 0.58,0.24 0.84,0.36l20.7 11.71c2.39,1.45 1.08,0.99 3.6,2.4 1.72,0.96 2.31,0.99 4.04,1.97l68.59 39.45c1.58,0.88 2.25,1.02 4.04,1.96l7.46 4.55c9.32,3.95 19.75,10.36 28.22,16.2 3.55,2.44 3.67,3.27 9.45,3.75 0.27,3.25 0.57,3.27 1.2,6.01 -6.27,0.52 -27.47,14.64 -34.28,18.54l-6.02 3.58c-3.02,1.95 -1.12,0.73 -3.95,2.05 -2.83,1.31 0.48,-0.6 -2.44,1.16l-2.72 2.08c-0.21,0.15 -0.49,0.36 -0.71,0.49l-6.48 3.13c-2.06,1.28 -1.25,1.06 -3.67,2.34 -4.36,2.3 -7.26,5.83 -12.79,5.59 -5.2,-0.22 -19.42,-9.99 -24.73,-13.2l-40.6 -23.03c-2.09,-1.36 -0.89,-0.77 -3.78,-2.22l-69.02 -39.03c-2.02,-1.14 -1.81,-1.33 -3.59,-2.41l-40.6 -23.03c-3.24,-2.11 -0.79,-0.66 -4.62,-2.59 -2.86,-1.43 -1.71,-0.87 -3.79,-2.21l-46.78 -26.45c-0.25,-0.12 -0.57,-0.26 -0.81,-0.39l-8.27 -4.94c-3.09,-1.53 -2.05,-1.33 -4.39,-2.81 -1.45,-0.92 -2.34,-1.28 -3.86,-2.14l-61.15 -34.9c-0.22,-0.13 -0.51,-0.33 -0.73,-0.46l-6.76 -4.05c-2.67,-1.69 -0.98,-0.6 -3.93,-2.08l-29.28 -15.13c-3.49,-1.38 -1.07,-0.32 -4,-2.01l-8.86 -4.34c-4.17,-2.42 -10.21,-2.54 -14.42,-4.79 -4.41,-2.35 0.97,-0.48 -4.05,-1.95l-9.42 -2.59c-2.42,-1.28 -1.65,-1.49 -5.03,-2.17 -3.67,-0.73 -6.84,-0.68 -10.55,-1.45 -4.14,-0.87 -6.19,-2.56 -10.02,-3.19 -24.01,-3.94 -50.74,-6.81 -75.48,-4.02 -7.7,0.87 -6.45,1.79 -14.14,2.66 -4.37,0.49 -10.88,0.49 -15.64,1.18 -5.27,0.75 -6.4,3.07 -12.77,4.04 -1.86,0.28 -5.39,0.68 -7.24,1.15l-60.42 26.02c-2.1,1.26 -0.88,0.44 -3.2,1.6l-25.24 16.78c-11.3,9.08 -22.74,17.94 -32.76,28.47 -0.17,0.18 -0.41,0.44 -0.58,0.62l-9.67 10.74c-1.72,2.2 -2.23,2.49 -3.92,4.49 -2.75,3.24 -4.85,6.17 -7.42,9.39 -6.22,7.8 -12.64,15.82 -17.28,24.73 -0.7,1.36 -0.58,1.43 -1.13,2.48 -1.16,2.24 -0.29,0.62 -1.82,2.97l-12.37 24.85c-1.85,5.16 -2.36,2.86 -4.07,9.14l-5.39 15.02c-1.69,6.56 1.33,-3.56 -0.49,1.91l-4.2 15.01c-1.53,8.71 -3.33,7.58 -4.79,20.42 -0.44,3.86 -0.07,3.89 -1.08,7.32 -0.77,2.59 -1.26,2.51 -2.11,6.3 -1.58,7.01 -0.8,24.23 -1.67,31.94l1.67 47.2c0.85,3.79 1.34,3.7 2.11,6.29 1.93,6.54 0.64,15 3.74,21.47l3.21 13.6c0.87,4.1 1,2.94 2.44,5.97 1.1,2.32 1.43,4.26 2,6.4 1.13,4.3 0.74,2.64 2.39,6.01l4.22 11.39c1.84,3.19 1.04,0.84 2.81,5.59l26.13 45.91c0.15,0.2 0.38,0.46 0.53,0.66l2.5 3.51c0.94,1.29 1.06,1.3 2.11,2.69l19.46 22.56c0.17,0.18 0.43,0.42 0.61,0.59l20.09 19.53c1.16,1.12 0.7,0.78 1.81,1.79l14.45 10.76c0.28,0.21 1.11,0.8 1.39,1.01l21.69 14.32c2.59,1.46 2.46,1.83 5.17,3.24l28.07 13.95c3.01,1.2 3.52,0.34 6.82,1.59l12.13 4.67c4.79,1.47 2.41,1.38 5.58,2.82 5.24,2.39 8,0.11 14.03,2.78 10.44,4.64 13.14,2.35 27.35,6.26 4.68,1.29 9.64,1.79 15.02,1.79z"/>
   <path class="fil1" d="M2066.23 788.74c2.39,-3.77 1.02,-71.67 1.02,-76.3l0 -525.9c0,-3.68 0.88,-16.34 -1.02,-19.33l0 621.53z"/>
   <path class="fil1" d="M0.28 784.67l0 -616.44c-0.88,1.38 -0.54,-1.41 -1.04,3.03l0.02 305.19c0,98.78 0.76,200.35 -0.01,299.07 -0.01,1.44 -0.15,3.83 -0.06,5.15 0.03,0.47 0.11,1.5 0.18,1.86 0.41,2.06 0.21,1.04 0.91,2.14z"/>
  </g>
 </g>
</svg>
