<?xml version="1.0" encoding="utf-8"?>
<!-- Generator: Adobe Illustrator 23.0.1, SVG Export Plug-In . SVG Version: 6.00 Build 0)  -->
<svg version="1.1" id="Layer_1" xmlns="http://www.w3.org/2000/svg" xmlns:xlink="http://www.w3.org/1999/xlink" x="0px" y="0px"
	 viewBox="0 0 2293 566" style="enable-background:new 0 0 2293 566;" xml:space="preserve">
<style type="text/css">
	.st0{fill:url(#SVGID_1_);}
	.st1{fill:url(#SVGID_2_);}
	.st2{fill:url(#SVGID_3_);}
	.st3{fill:url(#SVGID_4_);}
	.st4{fill:url(#SVGID_5_);}
	.st5{fill:url(#SVGID_6_);}
	.st6{fill:url(#SVGID_7_);}
	.st7{fill:url(#SVGID_8_);}
	.st8{fill:#F1F1F1;}
</style>
<g>
	<g>
		<linearGradient id="SVGID_1_" gradientUnits="userSpaceOnUse" x1="772.85" y1="446.0291" x2="772.85" y2="119.9709">
			<stop  offset="0" style="stop-color:#dc165a"/>
			<stop  offset="0.8101" style="stop-color:#FF7BAC"/>
		</linearGradient>
		<path class="st0" d="M877.28,119.97l-79.39,326.06H747.8l-79.39-326.06h50.56l53.87,219.74l53.4-219.74H877.28z"/>
		<linearGradient id="SVGID_2_" gradientUnits="userSpaceOnUse" x1="1015.2697" y1="446.0291" x2="1015.2697" y2="119.9709">
			<stop  offset="0" style="stop-color:#F2B9CE"/>
			<stop  offset="0.8101" style="stop-color:#dc165a"/>
		</linearGradient>
		<path class="st1" d="M961.4,446.03h-48.67V119.97h102.54c16.54,0,31.19,2.36,43.95,7.56c13.23,5.2,24.1,11.81,33.08,20.79
			c8.51,9.45,15.12,19.85,19.37,32.6c4.25,11.81,6.14,25.05,6.14,39.69c0,13.7-1.89,26.46-5.67,38.75
			c-4.25,12.76-10.4,23.63-18.9,32.61c-8.03,9.92-18.9,17.96-31.66,23.63c-12.76,6.14-27.41,8.98-43.95,8.98H961.4V446.03z
			 M961.4,278.28h51.98c9.45,0,17.48-1.42,23.63-4.25c6.62-2.36,11.81-6.14,16.07-10.87c4.25-5.2,7.09-11.34,9.45-17.96
			c2.36-7.09,3.78-15.12,3.78-24.1c0-17.96-4.73-31.66-13.7-41.11c-8.51-8.98-22.21-13.23-40.64-13.23H961.4V278.28z"/>
		<linearGradient id="SVGID_3_" gradientUnits="userSpaceOnUse" x1="1247.2932" y1="446.0291" x2="1247.2932" y2="119.9709">
			<stop  offset="0" style="stop-color:#dc165a"/>
			<stop  offset="0.8101" style="stop-color:#FF7BAC"/>
		</linearGradient>
		<path class="st2" d="M1201.46,241.89v204.14h-48.67V119.97h47.73l92.62,212.65V119.97h48.67v326.06h-51.51L1201.46,241.89z"/>
		<linearGradient id="SVGID_4_" gradientUnits="userSpaceOnUse" x1="1628.6354" y1="446.0291" x2="1628.6354" y2="119.9709">
			<stop  offset="0" style="stop-color:#dc165a"/>
			<stop  offset="0.8101" style="stop-color:#FF7BAC"/>
		</linearGradient>
		<path class="st3" d="M1574.76,446.03h-48.67V119.97h102.54c16.54,0,31.19,2.36,43.95,7.56c13.23,5.2,24.1,11.81,33.08,20.79
			c8.51,9.45,15.12,19.85,19.37,32.6c4.25,11.81,6.14,25.05,6.14,39.69c0,13.7-1.89,26.46-5.67,38.75
			c-4.25,12.76-10.4,23.63-18.9,32.61c-8.03,9.92-18.9,17.96-31.66,23.63c-12.76,6.14-27.41,8.98-43.95,8.98h-56.23V446.03z
			 M1574.76,278.28h51.98c9.45,0,17.48-1.42,23.63-4.25c6.62-2.36,11.81-6.14,16.07-10.87c4.25-5.2,7.09-11.34,9.45-17.96
			c2.36-7.09,3.78-15.12,3.78-24.1c0-17.96-4.73-31.66-13.7-41.11c-8.51-8.98-22.21-13.23-40.64-13.23h-50.56V278.28z"/>
		<linearGradient id="SVGID_5_" gradientUnits="userSpaceOnUse" x1="1790.9535" y1="446.0291" x2="1790.9535" y2="119.9709">
			<stop  offset="0" style="stop-color:#F2B9CE"/>
			<stop  offset="0.8101" style="stop-color:#FF7BAC"/>
		</linearGradient>
		<path class="st4" d="M1815.29,446.03h-48.67V119.97h48.67V446.03z"/>
		<linearGradient id="SVGID_6_" gradientUnits="userSpaceOnUse" x1="1945.2386" y1="446.0291" x2="1945.2386" y2="119.9709">
			<stop  offset="0" style="stop-color:#F2B9CE"/>
			<stop  offset="0.8101" style="stop-color:#FF7BAC"/>
		</linearGradient>
		<path class="st5" d="M1899.4,241.89v204.14h-48.67V119.97h47.73l92.62,212.65V119.97h48.67v326.06h-51.51L1899.4,241.89z"/>
		<linearGradient id="SVGID_7_" gradientUnits="userSpaceOnUse" x1="2179.8584" y1="446.0291" x2="2179.8584" y2="119.9709">
			<stop  offset="0" style="stop-color:#dc165a"/>
			<stop  offset="0.8101" style="stop-color:#FF7BAC"/>
		</linearGradient>
		<path class="st6" d="M2231.13,446.03l-96.4-150.74l-11.34,14.65v136.09h-48.2V119.97h48.2v122.39l94.04-122.39h54.34
			l-107.74,138.46l120.5,187.6H2231.13z"/>
	</g>
	<g>
		<radialGradient id="SVGID_8_" cx="282.4723" cy="283" r="274" gradientUnits="userSpaceOnUse">
			<stop  offset="0" style="stop-color:#dc165a"/>
			<stop  offset="0.9101" style="stop-color:#dc165a"/>
		</radialGradient>
		<path class="st7" d="M437.62,557h-310.3C61.95,557,8.47,503.52,8.47,438.15v-310.3C8.47,62.48,61.95,9,127.32,9h310.3
			c65.37,0,118.85,53.48,118.85,118.85v310.3C556.47,503.52,502.99,557,437.62,557z"/>
		<g>
			<path class="st8" d="M301.32,299.46c-25.54,54.69-51.3,109.29-76.93,163.94c-35.17-12.57-66.43-35.83-88.42-66.03
				c-23.49-31.81-36.2-71.29-36.03-110.79c0.17-36.79,11.53-73.41,32.31-103.77c12.89-18.93,29.28-35.49,48.1-48.57
				c-13.87,17.49-25.14,37.1-32.09,58.35c-9.58,28.19-11.48,58.61-7.08,87.99c2.56,12.23,5.48,24.45,10.22,36.06
				c9.84,25.34,25.52,48.43,45.39,66.99c16.61-36.1,33.83-71.95,50.49-108c0.67-2.38,7.7-16.11,9.01-19
				c22.25-47.43,44.53-94.82,66.75-142.27c17.74,9.9,33.94,22.58,47.64,37.59c-19.11,40.53-38.1,81.1-57.16,121.68
				C311.85,277.06,303.92,294.41,301.32,299.46z"/>
			<path class="st8" d="M460.91,226.96c-8.02-31.76-26.97-60.14-51.5-81.56c-27.63-24.15-62.84-40.1-99.56-42.79
				c22.97,9.63,44.26,23.41,61.92,41.05c20.37,20.42,36.54,46.13,41.74,74.83c2.75,14.74,1.83,30.38-3.44,44.44
				c-1.36,3.55-23.19,57.1-103.03,46.4c-8.07,16.89-16.12,33.81-23.89,50.87c12.44,4.91,25.33,8.79,38.6,10.69
				c31.1,4.87,64.35-0.05,91.3-16.86c19.92-12.18,35.45-30.95,44.27-52.51c0.36-1.17,0.74-2.29,1.1-3.43
				C466.61,275.35,466.82,250.23,460.91,226.96z"/>
		</g>
	</g>
</g>
</svg>
